<svg width="60" height="60" viewBox="0 0 60 60" fill="none" xmlns="http://www.w3.org/2000/svg">
<circle cx="30" cy="30" r="30" fill="#4734F7"/>
<path fill-rule="evenodd" clip-rule="evenodd" d="M27.0972 24.3965C27.0972 23.9753 27.4387 23.6338 27.8599 23.6338L36.5897 23.6338C36.7919 23.6338 36.9859 23.7141 37.129 23.8572C37.272 24.0002 37.3524 24.1942 37.3524 24.3965L37.3524 33.1263C37.3524 33.5475 37.0109 33.889 36.5897 33.889C36.1684 33.889 35.8269 33.5475 35.8269 33.1263L35.8269 25.1592L27.8599 25.1592C27.4387 25.1592 27.0972 24.8177 27.0972 24.3965Z" fill="white"/>
<path fill-rule="evenodd" clip-rule="evenodd" d="M23.8264 37.1604C23.5286 36.8626 23.5286 36.3796 23.8264 36.0818L35.9287 23.9795C36.2266 23.6816 36.7095 23.6816 37.0074 23.9795C37.3052 24.2773 37.3052 24.7602 37.0074 25.0581L24.9051 37.1604C24.6072 37.4583 24.1243 37.4583 23.8264 37.1604Z" fill="white"/>
</svg>
