<svg width="60" height="60" viewBox="0 0 60 60" fill="none" xmlns="http://www.w3.org/2000/svg">
<path d="M16.667 30H26.0003C28.267 30 30.0003 31.7333 30.0003 34C30.0003 36.2667 28.267 38 26.0003 38H18.0003C17.2003 38 16.667 37.4667 16.667 36.6667V23.3333C16.667 22.5333 17.2003 22 18.0003 22H24.667C26.9337 22 28.667 23.7333 28.667 26C28.667 28.2667 26.9337 30 24.667 30H16.667Z" stroke="#8D8D8D" stroke-width="1.5" stroke-miterlimit="10"/>
<path d="M32.667 32.6673H43.3337C43.3337 29.734 40.9337 27.334 38.0003 27.334C35.067 27.334 32.667 29.734 32.667 32.6673ZM32.667 32.6673C32.667 35.6007 35.067 38.0007 38.0003 38.0007H40.267" stroke="#8D8D8D" stroke-width="1.5" stroke-miterlimit="10" stroke-linecap="round" stroke-linejoin="round"/>
<path d="M40 24H36" stroke="#8D8D8D" stroke-width="1.5" stroke-miterlimit="10" stroke-linecap="round" stroke-linejoin="round"/>
<circle cx="30" cy="30" r="29.5" stroke="white" stroke-opacity="0.1"/>
</svg>
