<svg width="60" height="60" viewBox="0 0 60 60" fill="none" xmlns="http://www.w3.org/2000/svg">
<path d="M38.6663 20.3867C35.1997 26.4534 28.5197 29.9334 21.5597 29.3067L17.333 28.9201" stroke="#8D8D8D" stroke-width="1.5" stroke-miterlimit="10" stroke-linecap="round" stroke-linejoin="round"/>
<path d="M21.333 39.8264C24.7997 33.7597 31.4797 30.2797 38.4397 30.9064L42.6663 31.2931" stroke="#8D8D8D" stroke-width="1.5" stroke-miterlimit="10" stroke-linecap="round" stroke-linejoin="round"/>
<path d="M30.0003 43.3327C37.3641 43.3327 43.3337 37.3631 43.3337 29.9993C43.3337 22.6356 37.3641 16.666 30.0003 16.666C22.6365 16.666 16.667 22.6356 16.667 29.9993C16.667 37.3631 22.6365 43.3327 30.0003 43.3327Z" stroke="#8D8D8D" stroke-width="1.5" stroke-miterlimit="10" stroke-linecap="round" stroke-linejoin="round"/>
<path d="M24.1729 18L28.4129 23.2667C31.2529 26.7867 33.2662 30.88 34.3329 35.2667L35.9462 41.92" stroke="#8D8D8D" stroke-width="1.5" stroke-miterlimit="10" stroke-linecap="round" stroke-linejoin="round"/>
<circle cx="30" cy="30" r="29.5" stroke="white" stroke-opacity="0.1"/>
</svg>
