<svg width="145" height="30" viewBox="0 0 145 30" fill="none" xmlns="http://www.w3.org/2000/svg">
<path d="M45.9162 22.9616C44.7596 24.5983 43.1249 25.4166 41.0136 25.4166C38.9024 25.4166 37.2854 24.5983 36.1288 22.9616C35.4067 21.9066 35.0207 19.03 34.9722 16.8333H30.7966L30.7965 17.7085C30.7965 20.7119 31.7028 24.2483 33.5168 26.1933C35.5457 28.3599 38.0446 29.4433 41.0152 29.4433C43.9859 29.4433 46.4913 28.3599 48.5314 26.1933C50.3455 24.2483 51.2517 21.7749 51.2517 18.7699V16.8333H47.076C47.0275 19.0633 46.6415 21.9399 45.9178 22.9616H45.9162Z" fill="white"/>
<path d="M34.9628 0.5H30.7936V13H34.9628V0.5Z" fill="white"/>
<path d="M51.2485 0.5H47.0793V13H51.2485V0.5Z" fill="white"/>
<path d="M59.6163 0.5H55.4471V13.0799H59.6163V0.5Z" fill="white"/>
<path d="M59.606 16.9167H55.4368L55.4465 29.01H59.6157L59.606 16.9167Z" fill="white"/>
<path d="M62.918 0.5L69.9733 13.0833H75.8754L82.9156 0.501958L82.9123 0.5H78.0607L72.9338 9.61435L67.8077 0.5H62.918Z" fill="white"/>
<path d="M68.8261 16.9167L62.0749 28.9186L62.2267 29H66.9688L72.9273 18.3518L78.8977 29H83.8367L77.0408 16.9167H68.8261Z" fill="white"/>
<path d="M90.2109 0.5H88.8268V29H90.2109V0.5Z" fill="white"/>
<path fill-rule="evenodd" clip-rule="evenodd" d="M24.2343 16.8333H18.5766V13H30.8533V16.8333H27.9943C28.1017 15.9639 28.1331 15.081 28.0854 14.1951L24.3918 14.1666C24.4391 15.0448 24.3857 15.9459 24.2343 16.8333ZM24.2343 16.8333H27.9943C27.6755 19.4136 26.6874 21.8752 25.1123 23.9476C23.0066 26.7181 19.9957 28.6036 16.6416 29.252C13.2875 29.9004 9.81938 29.2675 6.88434 27.4713C3.94931 25.6752 1.74794 22.8386 0.691037 19.4909C-0.365862 16.1432 -0.206077 12.513 1.14057 9.27789C2.48722 6.04278 4.92873 3.42373 8.00948 1.9095C11.0902 0.39527 14.5997 0.0893138 17.883 1.04873C21.1664 2.00814 23.9992 4.16738 25.8528 7.12349L22.7799 9.17482C21.409 6.98859 19.3139 5.39169 16.8857 4.68215C14.4575 3.9726 11.862 4.19887 9.58357 5.31874C7.30516 6.43861 5.49951 8.37556 4.50358 10.7681C3.50764 13.1607 3.38947 15.8454 4.17112 18.3213C4.95276 20.7972 6.58082 22.895 8.75146 24.2233C10.9221 25.5517 13.487 26.0198 15.9676 25.5402C18.4482 25.0607 20.6749 23.6663 22.2322 21.6173C23.2635 20.2603 23.9374 18.5732 24.2343 16.8333Z" fill="white"/>
<path d="M28.0854 14.1951L24.3918 14.1666C24.4391 15.0448 24.3857 15.9459 24.2343 16.8333H27.9943C28.1017 15.9639 28.1331 15.081 28.0854 14.1951Z" fill="white"/>
<path d="M96 28.707V11.2461H101.895C103.074 11.2461 104.082 11.4727 104.918 11.9258C105.762 12.3711 106.406 12.9922 106.852 13.7891C107.297 14.5781 107.52 15.4922 107.52 16.5312C107.52 17.5703 107.293 18.4883 106.84 19.2852C106.395 20.082 105.75 20.707 104.906 21.1602C104.062 21.6055 103.051 21.8281 101.871 21.8281H96.9961V20.375H101.848C102.707 20.375 103.438 20.2148 104.039 19.8945C104.648 19.5664 105.113 19.1172 105.434 18.5469C105.754 17.9688 105.914 17.2969 105.914 16.5312C105.914 15.7656 105.754 15.0977 105.434 14.5273C105.113 13.9492 104.648 13.5 104.039 13.1797C103.438 12.8594 102.703 12.6992 101.836 12.6992H97.6172V28.707H96Z" fill="#5E5E5E"/>
<path d="M110.578 28.707V11.2461H116.555C117.734 11.2461 118.742 11.4648 119.578 11.9023C120.422 12.332 121.066 12.9414 121.512 13.7305C121.957 14.5117 122.18 15.4258 122.18 16.4727C122.18 17.5117 121.949 18.4219 121.488 19.2031C121.035 19.9766 120.383 20.5781 119.531 21.0078C118.688 21.4375 117.68 21.6523 116.508 21.6523H111.469V20.1875H116.52C117.379 20.1875 118.109 20.0352 118.711 19.7305C119.312 19.4258 119.773 18.9961 120.094 18.4414C120.414 17.8789 120.574 17.2227 120.574 16.4727C120.574 15.6992 120.414 15.0352 120.094 14.4805C119.773 13.918 119.309 13.4805 118.699 13.168C118.098 12.8555 117.363 12.6992 116.496 12.6992H112.195V28.707H110.578ZM120.738 28.707L116.508 20.8203H118.348L122.613 28.707H120.738Z" fill="#5E5E5E"/>
<path d="M132.375 28.9531C130.883 28.9531 129.559 28.5781 128.402 27.8281C127.254 27.0781 126.352 26.0312 125.695 24.6875C125.047 23.3359 124.723 21.7695 124.723 19.9883C124.723 18.1914 125.047 16.6211 125.695 15.2773C126.352 13.9336 127.254 12.8867 128.402 12.1367C129.559 11.3789 130.883 11 132.375 11C133.867 11 135.188 11.3789 136.336 12.1367C137.484 12.8867 138.383 13.9336 139.031 15.2773C139.68 16.6211 140.004 18.1914 140.004 19.9883C140.004 21.7695 139.68 23.3359 139.031 24.6875C138.383 26.0312 137.484 27.0781 136.336 27.8281C135.188 28.5781 133.867 28.9531 132.375 28.9531ZM132.375 27.4297C133.516 27.4297 134.539 27.1367 135.445 26.5508C136.359 25.957 137.082 25.1055 137.613 23.9961C138.145 22.8789 138.41 21.543 138.41 19.9883C138.41 18.4258 138.145 17.0898 137.613 15.9805C137.082 14.8633 136.359 14.0078 135.445 13.4141C134.539 12.8203 133.516 12.5234 132.375 12.5234C131.234 12.5234 130.207 12.8203 129.293 13.4141C128.379 14 127.656 14.8516 127.125 15.9688C126.594 17.0859 126.328 18.4258 126.328 19.9883C126.328 21.5352 126.59 22.8672 127.113 23.9844C127.645 25.0938 128.367 25.9453 129.281 26.5391C130.195 27.1328 131.227 27.4297 132.375 27.4297Z" fill="#5E5E5E"/>
</svg>
