<svg width="174" height="56" viewBox="0 0 174 56" fill="none" xmlns="http://www.w3.org/2000/svg">
<path d="M1.12 18V6.48H9.944V18H8.768V7.608H2.296V18H1.12ZM15.7905 18.24C14.9318 18.24 14.1985 18.0453 13.5905 17.656C12.9825 17.2667 12.5158 16.728 12.1905 16.04C11.8652 15.352 11.7025 14.5627 11.7025 13.672C11.7025 12.7653 11.8678 11.9707 12.1985 11.288C12.5292 10.6053 12.9985 10.0747 13.6065 9.696C14.2198 9.312 14.9478 9.12 15.7905 9.12C16.6545 9.12 17.3905 9.31467 17.9985 9.704C18.6118 10.088 19.0785 10.624 19.3985 11.312C19.7238 11.9947 19.8865 12.7813 19.8865 13.672C19.8865 14.5787 19.7238 15.376 19.3985 16.064C19.0732 16.7467 18.6038 17.28 17.9905 17.664C17.3772 18.048 16.6438 18.24 15.7905 18.24ZM15.7905 17.112C16.7505 17.112 17.4652 16.7947 17.9345 16.16C18.4038 15.52 18.6385 14.6907 18.6385 13.672C18.6385 12.6267 18.4012 11.7947 17.9265 11.176C17.4572 10.5573 16.7452 10.248 15.7905 10.248C15.1452 10.248 14.6118 10.3947 14.1905 10.688C13.7745 10.976 13.4625 11.3787 13.2545 11.896C13.0518 12.408 12.9505 13 12.9505 13.672C12.9505 14.712 13.1905 15.5467 13.6705 16.176C14.1505 16.8 14.8572 17.112 15.7905 17.112ZM26.9393 18V14.784C26.6513 14.928 26.2966 15.0533 25.8753 15.16C25.4539 15.2667 25.0006 15.32 24.5153 15.32C23.6406 15.32 22.9313 15.1253 22.3873 14.736C21.8433 14.3467 21.4886 13.784 21.3233 13.048C21.2699 12.8293 21.2326 12.5973 21.2113 12.352C21.1953 12.1067 21.1846 11.8853 21.1793 11.688C21.1739 11.4907 21.1713 11.3493 21.1713 11.264V9.36H22.3553V11.264C22.3553 11.44 22.3606 11.64 22.3713 11.864C22.3819 12.088 22.4059 12.3067 22.4433 12.52C22.5499 13.1013 22.7899 13.5413 23.1633 13.84C23.5419 14.1387 24.0726 14.288 24.7552 14.288C25.1819 14.288 25.5846 14.2347 25.9633 14.128C26.3473 14.016 26.6726 13.8667 26.9393 13.68V9.36H28.1153V18H26.9393ZM32.6984 18V10.448H29.6344V9.36H36.9384V10.448H33.8744V18H32.6984ZM40.6076 18.24C39.957 18.24 39.4103 18.1227 38.9676 17.888C38.5303 17.6533 38.2023 17.3413 37.9836 16.952C37.765 16.5627 37.6556 16.1387 37.6556 15.68C37.6556 15.2107 37.749 14.8107 37.9356 14.48C38.1276 14.144 38.3863 13.8693 38.7116 13.656C39.0423 13.4427 39.4236 13.28 39.8556 13.168C40.293 13.0613 40.7756 12.968 41.3036 12.888C41.837 12.8027 42.357 12.7307 42.8636 12.672C43.3756 12.608 43.8236 12.5467 44.2076 12.488L43.7916 12.744C43.8076 11.8907 43.6423 11.2587 43.2956 10.848C42.949 10.4373 42.3463 10.232 41.4876 10.232C40.8956 10.232 40.3943 10.3653 39.9836 10.632C39.5783 10.8987 39.293 11.32 39.1276 11.896L37.9836 11.56C38.181 10.7867 38.5783 10.1867 39.1756 9.76C39.773 9.33333 40.549 9.12 41.5036 9.12C42.293 9.12 42.9623 9.26933 43.5116 9.568C44.0663 9.86133 44.4583 10.288 44.6876 10.848C44.7943 11.0987 44.8636 11.3787 44.8956 11.688C44.9276 11.9973 44.9436 12.312 44.9436 12.632V18H43.8956V15.832L44.1996 15.96C43.9063 16.7013 43.4503 17.2667 42.8316 17.656C42.213 18.0453 41.4716 18.24 40.6076 18.24ZM40.7436 17.224C41.293 17.224 41.773 17.1253 42.1836 16.928C42.5943 16.7307 42.925 16.4613 43.1756 16.12C43.4263 15.7733 43.589 15.384 43.6636 14.952C43.7276 14.6747 43.7623 14.3707 43.7676 14.04C43.773 13.704 43.7756 13.4533 43.7756 13.288L44.2236 13.52C43.8236 13.5733 43.389 13.6267 42.9196 13.68C42.4556 13.7333 41.997 13.7947 41.5436 13.864C41.0956 13.9333 40.6903 14.016 40.3276 14.112C40.0823 14.1813 39.845 14.28 39.6156 14.408C39.3863 14.5307 39.197 14.696 39.0476 14.904C38.9036 15.112 38.8316 15.3707 38.8316 15.68C38.8316 15.9307 38.893 16.1733 39.0156 16.408C39.1436 16.6427 39.3463 16.8373 39.6236 16.992C39.9063 17.1467 40.2796 17.224 40.7436 17.224Z" fill="#5C5C5C"/>
<path fill-rule="evenodd" clip-rule="evenodd" d="M3.88534 37.2371C3.20538 37.8685 2.75 38.893 2.75 40.5C2.75 40.9142 2.41421 41.25 2 41.25C1.58579 41.25 1.25 40.9142 1.25 40.5C1.25 38.6071 1.79462 37.1315 2.86466 36.1379C3.92465 35.1536 5.38503 34.75 7 34.75H17C18.615 34.75 20.0754 35.1536 21.1353 36.1379C22.2054 37.1315 22.75 38.6071 22.75 40.5V47.5C22.75 49.393 22.2054 50.8685 21.1353 51.8621C20.0754 52.8464 18.615 53.25 17 53.25H7C6.58579 53.25 6.25 52.9142 6.25 52.5C6.25 52.0858 6.58579 51.75 7 51.75H17C18.385 51.75 19.4246 51.4036 20.1147 50.7629C20.7946 50.1315 21.25 49.107 21.25 47.5V40.5C21.25 38.893 20.7946 37.8685 20.1147 37.2371C19.4246 36.5964 18.385 36.25 17 36.25H7C5.61497 36.25 4.57535 36.5964 3.88534 37.2371Z" fill="#DEDEDE"/>
<path fill-rule="evenodd" clip-rule="evenodd" d="M17.586 40.532C17.8446 40.8556 17.7917 41.3275 17.4681 41.586L14.3372 44.0868C13.0338 45.1244 10.9563 45.1244 9.65289 44.0868L9.65104 44.0853L6.53105 41.5853C6.2078 41.3263 6.15573 40.8543 6.41474 40.531C6.67375 40.2078 7.14576 40.1557 7.46901 40.4147L10.588 42.914C11.3446 43.5155 12.6462 43.5154 13.4025 42.9135C13.4024 42.9136 13.4027 42.9135 13.4025 42.9135L16.532 40.414C16.8556 40.1555 17.3275 40.2083 17.586 40.532Z" fill="#DEDEDE"/>
<path fill-rule="evenodd" clip-rule="evenodd" d="M1.25 48.5C1.25 48.0858 1.58579 47.75 2 47.75H8C8.41421 47.75 8.75 48.0858 8.75 48.5C8.75 48.9142 8.41421 49.25 8 49.25H2C1.58579 49.25 1.25 48.9142 1.25 48.5Z" fill="#DEDEDE"/>
<path fill-rule="evenodd" clip-rule="evenodd" d="M1.25 44.5C1.25 44.0858 1.58579 43.75 2 43.75H5C5.41421 43.75 5.75 44.0858 5.75 44.5C5.75 44.9142 5.41421 45.25 5 45.25H2C1.58579 45.25 1.25 44.9142 1.25 44.5Z" fill="#DEDEDE"/>
<path d="M36.552 54.08C36.1093 54.08 35.672 54.0133 35.24 53.88C34.8133 53.752 34.4187 53.5467 34.056 53.264C33.6933 52.9867 33.3893 52.624 33.144 52.176L34.208 51.584C34.448 52.064 34.784 52.408 35.216 52.616C35.6533 52.8293 36.0987 52.936 36.552 52.936C37.176 52.936 37.68 52.8187 38.064 52.584C38.4533 52.3547 38.736 52.0133 38.912 51.56C39.088 51.1067 39.1733 50.5413 39.168 49.864V47.56H39.304V41.36H40.352V49.88C40.352 50.1253 40.344 50.36 40.328 50.584C40.3173 50.8133 40.2933 51.0373 40.256 51.256C40.1547 51.9013 39.944 52.432 39.624 52.848C39.3093 53.264 38.8933 53.5733 38.376 53.776C37.864 53.9787 37.256 54.08 36.552 54.08ZM36.472 50.24C35.6667 50.24 34.9787 50.04 34.408 49.64C33.8373 49.2347 33.4 48.688 33.096 48C32.792 47.312 32.64 46.536 32.64 45.672C32.64 44.8133 32.7893 44.04 33.088 43.352C33.392 42.664 33.8267 42.12 34.392 41.72C34.9573 41.32 35.6347 41.12 36.424 41.12C37.2347 41.12 37.9173 41.3173 38.472 41.712C39.0267 42.1067 39.4453 42.648 39.728 43.336C40.016 44.0187 40.16 44.7973 40.16 45.672C40.16 46.5307 40.0187 47.3067 39.736 48C39.4533 48.688 39.0373 49.2347 38.488 49.64C37.9387 50.04 37.2667 50.24 36.472 50.24ZM36.592 49.144C37.2053 49.144 37.712 48.9947 38.112 48.696C38.512 48.3973 38.8107 47.9867 39.008 47.464C39.2053 46.936 39.304 46.3387 39.304 45.672C39.304 44.9947 39.2053 44.3973 39.008 43.88C38.8107 43.3573 38.512 42.9493 38.112 42.656C37.7173 42.3627 37.2187 42.216 36.616 42.216C35.9973 42.216 35.4853 42.368 35.08 42.672C34.6747 42.976 34.3733 43.3893 34.176 43.912C33.984 44.4347 33.888 45.0213 33.888 45.672C33.888 46.328 33.9867 46.92 34.184 47.448C34.3867 47.9707 34.688 48.384 35.088 48.688C35.488 48.992 35.9893 49.144 36.592 49.144ZM45.8928 50.216C45.3754 50.216 44.9221 50.136 44.5328 49.976C44.1488 49.816 43.8208 49.6 43.5488 49.328C43.2821 49.056 43.0661 48.7467 42.9008 48.4C42.7354 48.048 42.6154 47.6773 42.5408 47.288C42.4661 46.8933 42.4288 46.5013 42.4288 46.112V41.36H43.6128V45.768C43.6128 46.2427 43.6581 46.6827 43.7488 47.088C43.8394 47.4933 43.9834 47.848 44.1808 48.152C44.3834 48.4507 44.6421 48.6827 44.9568 48.848C45.2768 49.0133 45.6634 49.096 46.1168 49.096C46.5328 49.096 46.8981 49.024 47.2128 48.88C47.5328 48.736 47.7994 48.5307 48.0128 48.264C48.2314 47.992 48.3968 47.664 48.5088 47.28C48.6208 46.8907 48.6768 46.4533 48.6768 45.968L49.5087 46.152C49.5087 47.0373 49.3541 47.7813 49.0448 48.384C48.7354 48.9867 48.3088 49.4427 47.7648 49.752C47.2208 50.0613 46.5968 50.216 45.8928 50.216ZM48.7968 50V47.872H48.6768V41.36H49.8528V50H48.7968ZM55.3128 50.232C54.2994 50.232 53.4648 50.0133 52.8088 49.576C52.1581 49.1387 51.7581 48.5307 51.6088 47.752L52.8088 47.552C52.9368 48.0427 53.2274 48.4347 53.6808 48.728C54.1394 49.016 54.7048 49.16 55.3767 49.16C56.0328 49.16 56.5501 49.024 56.9288 48.752C57.3074 48.4747 57.4968 48.0987 57.4968 47.624C57.4968 47.3573 57.4354 47.1413 57.3128 46.976C57.1954 46.8053 56.9528 46.648 56.5848 46.504C56.2168 46.36 55.6674 46.1893 54.9368 45.992C54.1528 45.7787 53.5394 45.5653 53.0968 45.352C52.6541 45.1387 52.3394 44.8933 52.1528 44.616C51.9661 44.3333 51.8728 43.9893 51.8728 43.584C51.8728 43.0933 52.0114 42.664 52.2888 42.296C52.5661 41.9227 52.9501 41.6347 53.4408 41.432C53.9314 41.224 54.5021 41.12 55.1528 41.12C55.8034 41.12 56.3848 41.2267 56.8968 41.44C57.4141 41.648 57.8301 41.9413 58.1448 42.32C58.4594 42.6987 58.6461 43.1387 58.7048 43.64L57.5048 43.856C57.4248 43.3493 57.1714 42.9493 56.7448 42.656C56.3234 42.3573 55.7874 42.2027 55.1368 42.192C54.5234 42.176 54.0248 42.2933 53.6408 42.544C53.2568 42.7893 53.0648 43.1173 53.0648 43.528C53.0648 43.7573 53.1341 43.9547 53.2728 44.12C53.4114 44.28 53.6621 44.432 54.0248 44.576C54.3928 44.72 54.9154 44.8773 55.5928 45.048C56.3874 45.2507 57.0114 45.464 57.4648 45.688C57.9181 45.912 58.2408 46.176 58.4328 46.48C58.6248 46.784 58.7208 47.16 58.7208 47.608C58.7208 48.424 58.4168 49.0667 57.8088 49.536C57.2061 50 56.3741 50.232 55.3128 50.232ZM64.151 50.24C63.3083 50.24 62.5777 50.0533 61.959 49.68C61.3457 49.3067 60.8683 48.7813 60.527 48.104C60.1857 47.4267 60.015 46.632 60.015 45.72C60.015 44.776 60.183 43.96 60.519 43.272C60.855 42.584 61.327 42.0533 61.935 41.68C62.5483 41.3067 63.271 41.12 64.103 41.12C64.9563 41.12 65.6843 41.3173 66.287 41.712C66.8897 42.1013 67.3457 42.6613 67.655 43.392C67.9643 44.1227 68.1057 44.9947 68.079 46.008H66.879V45.592C66.8577 44.472 66.615 43.6267 66.151 43.056C65.6923 42.4853 65.0203 42.2 64.135 42.2C63.207 42.2 62.495 42.5013 61.999 43.104C61.5083 43.7067 61.263 44.5653 61.263 45.68C61.263 46.768 61.5083 47.6133 61.999 48.216C62.495 48.8133 63.1963 49.112 64.103 49.112C64.7217 49.112 65.2603 48.9707 65.719 48.688C66.183 48.4 66.5483 47.9867 66.815 47.448L67.911 47.872C67.5697 48.624 67.0657 49.208 66.399 49.624C65.7377 50.0347 64.9883 50.24 64.151 50.24ZM60.847 46.008V45.024H67.447V46.008H60.847ZM70.0144 39.72V38.4H71.1904V39.72H70.0144ZM70.0144 50V41.36H71.1904V50H70.0144ZM79.8288 50V45.592C79.8288 45.112 79.7834 44.672 79.6928 44.272C79.6021 43.8667 79.4554 43.5147 79.2528 43.216C79.0554 42.912 78.7968 42.6773 78.4768 42.512C78.1621 42.3467 77.7781 42.264 77.3248 42.264C76.9088 42.264 76.5408 42.336 76.2208 42.48C75.9061 42.624 75.6394 42.832 75.4208 43.104C75.2074 43.3707 75.0448 43.696 74.9328 44.08C74.8208 44.464 74.7648 44.9013 74.7648 45.392L73.9328 45.208C73.9328 44.3227 74.0874 43.5787 74.3968 42.976C74.7061 42.3733 75.1328 41.9173 75.6768 41.608C76.2208 41.2987 76.8448 41.144 77.5488 41.144C78.0661 41.144 78.5168 41.224 78.9008 41.384C79.2901 41.544 79.6181 41.76 79.8848 42.032C80.1568 42.304 80.3754 42.616 80.5408 42.968C80.7061 43.3147 80.8261 43.6853 80.9008 44.08C80.9754 44.4693 81.0128 44.8587 81.0128 45.248V50H79.8288ZM73.5808 50V41.36H74.6448V43.488H74.7648V50H73.5808ZM86.6499 50.24C85.7912 50.24 85.0579 50.0453 84.4499 49.656C83.8419 49.2667 83.3752 48.728 83.0499 48.04C82.7245 47.352 82.5619 46.5627 82.5619 45.672C82.5619 44.7653 82.7272 43.9707 83.0579 43.288C83.3885 42.6053 83.8579 42.0747 84.4659 41.696C85.0792 41.312 85.8072 41.12 86.6499 41.12C87.5139 41.12 88.2499 41.3147 88.8579 41.704C89.4712 42.088 89.9379 42.624 90.2579 43.312C90.5832 43.9947 90.7459 44.7813 90.7459 45.672C90.7459 46.5787 90.5832 47.376 90.2579 48.064C89.9325 48.7467 89.4632 49.28 88.8499 49.664C88.2365 50.048 87.5032 50.24 86.6499 50.24ZM86.6499 49.112C87.6099 49.112 88.3245 48.7947 88.7939 48.16C89.2632 47.52 89.4979 46.6907 89.4979 45.672C89.4979 44.6267 89.2605 43.7947 88.7859 43.176C88.3165 42.5573 87.6045 42.248 86.6499 42.248C86.0045 42.248 85.4712 42.3947 85.0499 42.688C84.6339 42.976 84.3219 43.3787 84.1139 43.896C83.9112 44.408 83.8099 45 83.8099 45.672C83.8099 46.712 84.0499 47.5467 84.5299 48.176C85.0099 48.8 85.7165 49.112 86.6499 49.112ZM94.5341 50L91.3981 41.36H92.5901L95.1421 48.464L97.6781 41.36H98.8861L95.7501 50H94.5341ZM106.459 51.68C105.606 51.68 104.816 51.5307 104.091 51.232C103.366 50.9387 102.734 50.528 102.195 50C101.656 49.4667 101.235 48.84 100.931 48.12C100.632 47.4 100.483 46.616 100.483 45.768C100.483 44.8667 100.63 44.0453 100.923 43.304C101.216 42.5573 101.63 41.9147 102.163 41.376C102.702 40.832 103.339 40.4133 104.075 40.12C104.811 39.8267 105.619 39.68 106.499 39.68C107.507 39.68 108.387 39.8427 109.139 40.168C109.896 40.488 110.52 40.9253 111.011 41.48C111.502 42.0293 111.859 42.648 112.083 43.336C112.312 44.024 112.408 44.736 112.371 45.472C112.318 46.48 112.078 47.24 111.651 47.752C111.23 48.264 110.64 48.52 109.883 48.52C109.392 48.52 108.966 48.4053 108.603 48.176C108.24 47.9467 107.998 47.624 107.875 47.208L108.259 47.248C108.072 47.6267 107.792 47.9013 107.419 48.072C107.051 48.2427 106.667 48.328 106.267 48.328C105.782 48.328 105.355 48.224 104.987 48.016C104.624 47.8027 104.339 47.5093 104.131 47.136C103.928 46.7627 103.827 46.3307 103.827 45.84C103.827 45.328 103.934 44.8853 104.147 44.512C104.36 44.1387 104.654 43.8507 105.027 43.648C105.4 43.4453 105.822 43.344 106.291 43.344C106.638 43.344 106.995 43.416 107.363 43.56C107.736 43.704 108.022 43.9387 108.219 44.264L107.907 44.616V43.568H108.755L108.747 46.168C108.747 46.5627 108.838 46.8853 109.019 47.136C109.206 47.3813 109.512 47.504 109.939 47.504C110.227 47.504 110.467 47.424 110.659 47.264C110.856 47.104 111.008 46.88 111.115 46.592C111.222 46.2987 111.283 45.9547 111.299 45.56C111.331 44.7493 111.227 44.04 110.987 43.432C110.747 42.824 110.406 42.3173 109.963 41.912C109.52 41.5013 109.006 41.1947 108.419 40.992C107.838 40.7893 107.216 40.688 106.555 40.688C105.755 40.688 105.043 40.8213 104.419 41.088C103.8 41.3547 103.275 41.7227 102.843 42.192C102.416 42.6613 102.094 43.2027 101.875 43.816C101.656 44.424 101.552 45.072 101.563 45.76C101.568 46.4693 101.696 47.1253 101.947 47.728C102.203 48.3253 102.555 48.8453 103.003 49.288C103.451 49.7253 103.974 50.064 104.571 50.304C105.168 50.5493 105.816 50.672 106.515 50.672C106.968 50.672 107.422 50.6133 107.875 50.496C108.334 50.3787 108.742 50.216 109.099 50.008L109.475 50.904C109.011 51.1653 108.523 51.36 108.011 51.488C107.499 51.616 106.982 51.68 106.459 51.68ZM106.331 47.304C106.747 47.304 107.086 47.184 107.347 46.944C107.614 46.704 107.747 46.3333 107.747 45.832C107.747 45.3413 107.619 44.9707 107.363 44.72C107.112 44.4693 106.776 44.344 106.355 44.344C105.875 44.344 105.507 44.4747 105.251 44.736C105 44.9973 104.875 45.3627 104.875 45.832C104.875 46.3067 105.006 46.672 105.267 46.928C105.528 47.1787 105.883 47.304 106.331 47.304ZM118.208 54.08C117.766 54.08 117.328 54.0133 116.896 53.88C116.47 53.752 116.075 53.5467 115.712 53.264C115.35 52.9867 115.046 52.624 114.8 52.176L115.864 51.584C116.104 52.064 116.44 52.408 116.872 52.616C117.31 52.8293 117.755 52.936 118.208 52.936C118.832 52.936 119.336 52.8187 119.72 52.584C120.11 52.3547 120.392 52.0133 120.568 51.56C120.744 51.1067 120.83 50.5413 120.824 49.864V47.56H120.96V41.36H122.008V49.88C122.008 50.1253 122 50.36 121.984 50.584C121.974 50.8133 121.95 51.0373 121.912 51.256C121.811 51.9013 121.6 52.432 121.28 52.848C120.966 53.264 120.55 53.5733 120.032 53.776C119.52 53.9787 118.912 54.08 118.208 54.08ZM118.128 50.24C117.323 50.24 116.635 50.04 116.064 49.64C115.494 49.2347 115.056 48.688 114.752 48C114.448 47.312 114.296 46.536 114.296 45.672C114.296 44.8133 114.446 44.04 114.744 43.352C115.048 42.664 115.483 42.12 116.048 41.72C116.614 41.32 117.291 41.12 118.08 41.12C118.891 41.12 119.574 41.3173 120.128 41.712C120.683 42.1067 121.102 42.648 121.384 43.336C121.672 44.0187 121.816 44.7973 121.816 45.672C121.816 46.5307 121.675 47.3067 121.392 48C121.11 48.688 120.694 49.2347 120.144 49.64C119.595 50.04 118.923 50.24 118.128 50.24ZM118.248 49.144C118.862 49.144 119.368 48.9947 119.768 48.696C120.168 48.3973 120.467 47.9867 120.664 47.464C120.862 46.936 120.96 46.3387 120.96 45.672C120.96 44.9947 120.862 44.3973 120.664 43.88C120.467 43.3573 120.168 42.9493 119.768 42.656C119.374 42.3627 118.875 42.216 118.272 42.216C117.654 42.216 117.142 42.368 116.736 42.672C116.331 42.976 116.03 43.3893 115.832 43.912C115.64 44.4347 115.544 45.0213 115.544 45.672C115.544 46.328 115.643 46.92 115.84 47.448C116.043 47.9707 116.344 48.384 116.744 48.688C117.144 48.992 117.646 49.144 118.248 49.144ZM127.549 50.216C127.032 50.216 126.578 50.136 126.189 49.976C125.805 49.816 125.477 49.6 125.205 49.328C124.938 49.056 124.722 48.7467 124.557 48.4C124.392 48.048 124.272 47.6773 124.197 47.288C124.122 46.8933 124.085 46.5013 124.085 46.112V41.36H125.269V45.768C125.269 46.2427 125.314 46.6827 125.405 47.088C125.496 47.4933 125.64 47.848 125.837 48.152C126.04 48.4507 126.298 48.6827 126.613 48.848C126.933 49.0133 127.32 49.096 127.773 49.096C128.189 49.096 128.554 49.024 128.869 48.88C129.189 48.736 129.456 48.5307 129.669 48.264C129.888 47.992 130.053 47.664 130.165 47.28C130.277 46.8907 130.333 46.4533 130.333 45.968L131.165 46.152C131.165 47.0373 131.01 47.7813 130.701 48.384C130.392 48.9867 129.965 49.4427 129.421 49.752C128.877 50.0613 128.253 50.216 127.549 50.216ZM130.453 50V47.872H130.333V41.36H131.509V50H130.453ZM133.905 39.72V38.4H135.081V39.72H133.905ZM133.905 50V41.36H135.081V50H133.905ZM136.519 50L139.895 45.632L136.591 41.36H137.999L140.583 44.728L143.143 41.36H144.551L141.247 45.632L144.631 50H143.215L140.583 46.536L137.935 50H136.519ZM146.141 50V48.632H147.509V50H146.141ZM153.859 50.24C153.065 50.24 152.393 50.04 151.843 49.64C151.294 49.2347 150.878 48.688 150.595 48C150.313 47.3067 150.171 46.5307 150.171 45.672C150.171 44.7973 150.313 44.0187 150.595 43.336C150.883 42.648 151.305 42.1067 151.859 41.712C152.414 41.3173 153.097 41.12 153.907 41.12C154.697 41.12 155.374 41.32 155.939 41.72C156.505 42.12 156.937 42.664 157.235 43.352C157.539 44.04 157.691 44.8133 157.691 45.672C157.691 46.536 157.539 47.312 157.235 48C156.931 48.688 156.494 49.2347 155.923 49.64C155.353 50.04 154.665 50.24 153.859 50.24ZM149.971 53.84V41.36H151.027V47.864H151.155V53.84H149.971ZM153.739 49.144C154.342 49.144 154.843 48.992 155.243 48.688C155.643 48.384 155.942 47.9707 156.139 47.448C156.342 46.92 156.443 46.328 156.443 45.672C156.443 45.0213 156.345 44.4347 156.147 43.912C155.95 43.3893 155.649 42.976 155.243 42.672C154.843 42.368 154.334 42.216 153.715 42.216C153.113 42.216 152.611 42.3627 152.211 42.656C151.817 42.9493 151.521 43.3573 151.323 43.88C151.126 44.3973 151.027 44.9947 151.027 45.672C151.027 46.3387 151.126 46.936 151.323 47.464C151.521 47.9867 151.819 48.3973 152.219 48.696C152.619 48.9947 153.126 49.144 153.739 49.144ZM159.448 50V41.36H160.504V43.44L160.296 43.168C160.392 42.912 160.517 42.6773 160.672 42.464C160.827 42.2453 160.995 42.0667 161.176 41.928C161.4 41.7307 161.661 41.5813 161.96 41.48C162.259 41.3733 162.56 41.312 162.864 41.296C163.168 41.2747 163.445 41.296 163.696 41.36V42.464C163.381 42.384 163.037 42.3653 162.664 42.408C162.291 42.4507 161.947 42.6 161.632 42.856C161.344 43.08 161.128 43.3493 160.984 43.664C160.84 43.9733 160.744 44.304 160.696 44.656C160.648 45.0027 160.624 45.3467 160.624 45.688V50H159.448ZM168.666 50.24C167.807 50.24 167.074 50.0453 166.466 49.656C165.858 49.2667 165.391 48.728 165.066 48.04C164.74 47.352 164.578 46.5627 164.578 45.672C164.578 44.7653 164.743 43.9707 165.074 43.288C165.404 42.6053 165.874 42.0747 166.482 41.696C167.095 41.312 167.823 41.12 168.666 41.12C169.53 41.12 170.266 41.3147 170.874 41.704C171.487 42.088 171.954 42.624 172.274 43.312C172.599 43.9947 172.762 44.7813 172.762 45.672C172.762 46.5787 172.599 47.376 172.274 48.064C171.948 48.7467 171.479 49.28 170.866 49.664C170.252 50.048 169.519 50.24 168.666 50.24ZM168.666 49.112C169.626 49.112 170.34 48.7947 170.81 48.16C171.279 47.52 171.514 46.6907 171.514 45.672C171.514 44.6267 171.276 43.7947 170.802 43.176C170.332 42.5573 169.62 42.248 168.666 42.248C168.02 42.248 167.487 42.3947 167.066 42.688C166.65 42.976 166.338 43.3787 166.13 43.896C165.927 44.408 165.826 45 165.826 45.672C165.826 46.712 166.066 47.5467 166.546 48.176C167.026 48.8 167.732 49.112 168.666 49.112Z" fill="#DEDEDE"/>
<a href="mailto:guseinov@guix.pro">
<rect fill="black" fill-opacity="0" y="1.072" width="141.402" height="21.856"/>
</a>
</svg>
