<svg width="123" height="15" viewBox="0 0 123 15" fill="none" xmlns="http://www.w3.org/2000/svg">
<path d="M22.8928 11.3435C22.3161 12.1336 21.5011 12.5287 20.4485 12.5287C19.3958 12.5287 18.5896 12.1336 18.013 11.3435C17.653 10.8342 17.4605 9.44551 17.4364 8.38505H15.3545L15.3544 8.80757C15.3544 10.2574 15.8063 11.9647 16.7107 12.9036C17.7223 13.9496 18.9682 14.4726 20.4493 14.4726C21.9303 14.4726 23.1795 13.9496 24.1967 12.9036C25.1011 11.9647 25.5529 10.7707 25.5529 9.31997V8.38505H23.471C23.4469 9.4616 23.2536 10.8503 22.8928 11.3435Z" fill="white"/>
<path d="M17.4317 0.5H15.353V6.53447H17.4317V0.5Z" fill="white"/>
<path d="M25.5513 0.5H23.4727V6.53447H25.5513V0.5Z" fill="white"/>
<path d="M29.7233 0.5H27.6447V6.57303H29.7233V0.5Z" fill="white"/>
<path d="M29.7182 8.42528H27.6395L27.6444 14.2634H29.723L29.7182 8.42528Z" fill="white"/>
<path d="M31.3695 0.5L34.8871 6.57472H37.8297L41.3398 0.500945L41.3382 0.5H38.9193L36.3631 4.90003L33.8073 0.5H31.3695Z" fill="white"/>
<path d="M34.3151 8.42529L30.9491 14.2193L31.0248 14.2586H33.3891L36.3599 9.11811L39.3366 14.2586H41.799L38.4108 8.42529H34.3151Z" fill="white"/>
<path d="M44.9771 0.5H44.287V14.2586H44.9771V0.5Z" fill="white"/>
<path fill-rule="evenodd" clip-rule="evenodd" d="M12.0827 8.38504H9.26189V6.53447H15.3827V8.38504H13.9573C14.0109 7.96533 14.0265 7.53913 14.0027 7.11142L12.1612 7.09769C12.1848 7.52161 12.1582 7.95665 12.0827 8.38504ZM12.0827 8.38504H13.9573C13.7984 9.63069 13.3057 10.8191 12.5204 11.8195C11.4706 13.157 9.96941 14.0672 8.29714 14.3803C6.62487 14.6933 4.89572 14.3877 3.43238 13.5206C1.96903 12.6536 0.871481 11.2842 0.344535 9.66802C-0.182411 8.05187 -0.102745 6.29938 0.568664 4.7376C1.24007 3.17583 2.45735 1.91146 3.99334 1.18045C5.52933 0.449441 7.27908 0.301738 8.91607 0.764904C10.5531 1.22807 11.9654 2.27046 12.8896 3.69755L11.3575 4.68784C10.674 3.63242 9.62948 2.86151 8.41882 2.51897C7.20816 2.17643 5.91411 2.28566 4.77815 2.82629C3.64219 3.36692 2.74193 4.302 2.24538 5.45703C1.74883 6.61207 1.68991 7.90814 2.07962 9.10339C2.46933 10.2986 3.28104 11.3114 4.36328 11.9527C5.44551 12.5939 6.72433 12.8199 7.96108 12.5884C9.19783 12.3569 10.308 11.6837 11.0845 10.6945C11.5987 10.0395 11.9347 9.22502 12.0827 8.38504Z" fill="white"/>
<path d="M14.0027 7.11142L12.1612 7.09769C12.1848 7.52161 12.1582 7.95665 12.0827 8.38504H13.9573C14.0109 7.96533 14.0265 7.53913 14.0027 7.11142Z" fill="white"/>
<path d="M53.2236 14.0667C52.3677 14.0667 51.6452 13.8832 51.056 13.5163C50.4669 13.1456 50.021 12.6338 49.7185 11.9811C49.4159 11.3285 49.2646 10.5753 49.2646 9.72183C49.2646 8.86831 49.4159 8.11521 49.7185 7.46252C50.021 6.80983 50.4669 6.30004 51.056 5.93314C51.6452 5.56238 52.3677 5.377 53.2236 5.377C54.2228 5.377 55.0389 5.62611 55.6718 6.12431C56.3048 6.61866 56.7387 7.28293 56.9736 8.11714L56.0779 8.34307C55.8948 7.68266 55.5663 7.15935 55.0926 6.77314C54.6189 6.38693 53.9959 6.19383 53.2236 6.19383C52.5508 6.19383 51.9915 6.34252 51.5457 6.6399C51.0998 6.93728 50.7634 7.35245 50.5365 7.88542C50.3136 8.41452 50.1982 9.02666 50.1902 9.72183C50.1862 10.417 50.2957 11.0291 50.5186 11.5582C50.7455 12.0873 51.0839 12.5025 51.5337 12.8038C51.9875 13.1011 52.5508 13.2498 53.2236 13.2498C53.9959 13.2498 54.6189 13.0567 55.0926 12.6705C55.5663 12.2805 55.8948 11.7571 56.0779 11.1006L56.9736 11.3265C56.7387 12.1607 56.3048 12.8269 55.6718 13.3251C55.0389 13.8195 54.2228 14.0667 53.2236 14.0667Z" fill="#B6F09C"/>
<path d="M62.1903 14.0667C61.3344 14.0667 60.6119 13.8832 60.0228 13.5163C59.4336 13.1456 58.9877 12.6338 58.6852 11.9811C58.3826 11.3285 58.2314 10.5753 58.2314 9.72183C58.2314 8.86831 58.3826 8.11521 58.6852 7.46252C58.9877 6.80983 59.4336 6.30004 60.0228 5.93314C60.6119 5.56238 61.3344 5.377 62.1903 5.377C63.0502 5.377 63.7727 5.56238 64.3579 5.93314C64.9471 6.30004 65.3929 6.80983 65.6955 7.46252C66.002 8.11521 66.1552 8.86831 66.1552 9.72183C66.1552 10.5753 66.002 11.3285 65.6955 11.9811C65.3929 12.6338 64.9471 13.1456 64.3579 13.5163C63.7727 13.8832 63.0502 14.0667 62.1903 14.0667ZM62.1903 13.2498C62.8631 13.2498 63.4244 13.1011 63.8742 12.8038C64.3241 12.5064 64.6604 12.0931 64.8834 11.564C65.1103 11.0311 65.2237 10.417 65.2237 9.72183C65.2237 9.02666 65.1103 8.41452 64.8834 7.88542C64.6604 7.35631 64.3241 6.94307 63.8742 6.64569C63.4244 6.34831 62.8631 6.19769 62.1903 6.19383C61.5176 6.19383 60.9582 6.34252 60.5124 6.6399C60.0665 6.93728 59.7302 7.35245 59.5032 7.88542C59.2803 8.41452 59.1669 9.02666 59.1629 9.72183C59.1589 10.417 59.2684 11.0291 59.4913 11.5582C59.7182 12.0835 60.0566 12.4967 60.5064 12.798C60.9563 13.0953 61.5176 13.246 62.1903 13.2498Z" fill="#B6F09C"/>
<path d="M67.7691 13.8929V5.5508H68.5752L71.9549 12.5662L75.3168 5.5508H76.1348V13.8871H75.2989V7.45093L72.2356 13.8929H71.6683L68.611 7.45093V13.8929H67.7691Z" fill="#B6F09C"/>
<path d="M78.2286 13.8929V5.5508H79.0348L82.4145 12.5662L85.7763 5.5508H86.5944V13.8871H85.7584V7.45093L82.6951 13.8929H82.1279L79.0706 7.45093V13.8929H78.2286Z" fill="#B6F09C"/>
<path d="M92.044 14.0667C91.3872 14.0667 90.806 13.9353 90.3004 13.6727C89.7988 13.4101 89.4047 13.0393 89.1181 12.5605C88.8315 12.0816 88.6882 11.5216 88.6882 10.8805V5.55659L89.5719 5.5508V10.7704C89.5719 11.2029 89.6476 11.5776 89.7988 11.8942C89.9501 12.2071 90.1472 12.4658 90.39 12.6705C90.6368 12.8713 90.9055 13.02 91.1961 13.1166C91.4867 13.2131 91.7693 13.2614 92.044 13.2614C92.3227 13.2614 92.6073 13.2131 92.8979 13.1166C93.1885 13.02 93.4552 12.8713 93.6981 12.6705C93.9409 12.4658 94.138 12.2071 94.2892 11.8942C94.4405 11.5776 94.5161 11.2029 94.5161 10.7704V5.5508H95.3999V10.8805C95.3999 11.5216 95.2566 12.0816 94.97 12.5605C94.6833 13.0355 94.2872 13.4062 93.7817 13.6727C93.2801 13.9353 92.7009 14.0667 92.044 14.0667Z" fill="#B6F09C"/>
<path d="M97.4916 13.8929V5.5508H98.3754L103.111 12.3867V5.5508H103.994V13.8929H103.111L98.3754 7.05121V13.8929H97.4916Z" fill="#B6F09C"/>
<path d="M106.205 13.8929V5.5508H107.082V13.8929H106.205Z" fill="#B6F09C"/>
<path d="M111.577 13.8929V6.36762H108.574V5.5508H115.459V6.36762H112.455V13.8929H111.577Z" fill="#B6F09C"/>
<path d="M119.244 13.8929V10.3996L116.36 5.5508H117.375L119.686 9.42638L121.985 5.5508H123L120.128 10.3996V13.8929H119.244Z" fill="#B6F09C"/>
</svg>
