<svg width="138" height="56" viewBox="0 0 138 56" fill="none" xmlns="http://www.w3.org/2000/svg">
<path d="M4.184 18V7.608H0.16V6.48H9.384V7.608H5.36V18H4.184ZM13.1979 18.24C12.3552 18.24 11.6245 18.0533 11.0059 17.68C10.3925 17.3067 9.91521 16.7813 9.57388 16.104C9.23254 15.4267 9.06188 14.632 9.06188 13.72C9.06188 12.776 9.22988 11.96 9.56588 11.272C9.90188 10.584 10.3739 10.0533 10.9819 9.68C11.5952 9.30667 12.3179 9.12 13.1499 9.12C14.0032 9.12 14.7312 9.31733 15.3339 9.712C15.9365 10.1013 16.3925 10.6613 16.7019 11.392C17.0112 12.1227 17.1525 12.9947 17.1259 14.008H15.9259V13.592C15.9045 12.472 15.6619 11.6267 15.1979 11.056C14.7392 10.4853 14.0672 10.2 13.1819 10.2C12.2539 10.2 11.5419 10.5013 11.0459 11.104C10.5552 11.7067 10.3099 12.5653 10.3099 13.68C10.3099 14.768 10.5552 15.6133 11.0459 16.216C11.5419 16.8133 12.2432 17.112 13.1499 17.112C13.7685 17.112 14.3072 16.9707 14.7659 16.688C15.2299 16.4 15.5952 15.9867 15.8619 15.448L16.9579 15.872C16.6165 16.624 16.1125 17.208 15.4459 17.624C14.7845 18.0347 14.0352 18.24 13.1979 18.24ZM9.89388 14.008V13.024H16.4939V14.008H9.89388ZM18.1013 18V16.968C18.4213 17.0267 18.6639 17.0133 18.8293 16.928C18.9999 16.8373 19.1253 16.688 19.2053 16.48C19.2853 16.2667 19.3519 16.0027 19.4053 15.688C19.4906 15.1653 19.5679 14.5893 19.6373 13.96C19.7066 13.3307 19.7679 12.6373 19.8213 11.88C19.8799 11.1173 19.9386 10.2773 19.9973 9.36H25.8693V18H24.7013V10.488H21.0853C21.0479 11.0533 21.0053 11.616 20.9573 12.176C20.9093 12.736 20.8586 13.2747 20.8053 13.792C20.7573 14.304 20.7039 14.776 20.6453 15.208C20.5866 15.64 20.5253 16.0133 20.4613 16.328C20.3653 16.8027 20.2373 17.1813 20.0773 17.464C19.9226 17.7467 19.6906 17.9333 19.3813 18.024C19.0719 18.1147 18.6453 18.1067 18.1013 18ZM31.7604 18.24C30.9177 18.24 30.187 18.0533 29.5684 17.68C28.955 17.3067 28.4777 16.7813 28.1364 16.104C27.795 15.4267 27.6244 14.632 27.6244 13.72C27.6244 12.776 27.7924 11.96 28.1284 11.272C28.4644 10.584 28.9364 10.0533 29.5444 9.68C30.1577 9.30667 30.8804 9.12 31.7124 9.12C32.5657 9.12 33.2937 9.31733 33.8964 9.712C34.499 10.1013 34.955 10.6613 35.2644 11.392C35.5737 12.1227 35.715 12.9947 35.6884 14.008H34.4884V13.592C34.467 12.472 34.2244 11.6267 33.7604 11.056C33.3017 10.4853 32.6297 10.2 31.7444 10.2C30.8164 10.2 30.1044 10.5013 29.6084 11.104C29.1177 11.7067 28.8724 12.5653 28.8724 13.68C28.8724 14.768 29.1177 15.6133 29.6084 16.216C30.1044 16.8133 30.8057 17.112 31.7124 17.112C32.331 17.112 32.8697 16.9707 33.3284 16.688C33.7924 16.4 34.1577 15.9867 34.4244 15.448L35.5204 15.872C35.179 16.624 34.675 17.208 34.0084 17.624C33.347 18.0347 32.5977 18.24 31.7604 18.24ZM28.4564 14.008V13.024H35.0564V14.008H28.4564ZM37.4638 18V9.36H43.3838V10.488H38.6398V18H37.4638ZM48.7812 18.24C47.9866 18.24 47.3146 18.04 46.7653 17.64C46.2159 17.2347 45.7999 16.688 45.5173 16C45.2346 15.3067 45.0933 14.5307 45.0933 13.672C45.0933 12.7973 45.2346 12.0187 45.5173 11.336C45.8053 10.648 46.2266 10.1067 46.7813 9.712C47.3359 9.31733 48.0186 9.12 48.8293 9.12C49.6186 9.12 50.2959 9.32 50.8613 9.72C51.4266 10.12 51.8586 10.664 52.1573 11.352C52.4613 12.04 52.6133 12.8133 52.6133 13.672C52.6133 14.536 52.4613 15.312 52.1573 16C51.8533 16.688 51.4159 17.2347 50.8453 17.64C50.2746 18.04 49.5866 18.24 48.7812 18.24ZM44.8933 21.84V9.36H45.9493V15.864H46.0773V21.84H44.8933ZM48.6613 17.144C49.2639 17.144 49.7653 16.992 50.1653 16.688C50.5653 16.384 50.8639 15.9707 51.0613 15.448C51.2639 14.92 51.3653 14.328 51.3653 13.672C51.3653 13.0213 51.2666 12.4347 51.0693 11.912C50.8719 11.3893 50.5706 10.976 50.1653 10.672C49.7653 10.368 49.2559 10.216 48.6373 10.216C48.0346 10.216 47.5333 10.3627 47.1333 10.656C46.7386 10.9493 46.4426 11.3573 46.2453 11.88C46.0479 12.3973 45.9493 12.9947 45.9493 13.672C45.9493 14.3387 46.0479 14.936 46.2453 15.464C46.4426 15.9867 46.7413 16.3973 47.1413 16.696C47.5413 16.9947 48.0479 17.144 48.6613 17.144ZM56.842 18.24C56.1913 18.24 55.6447 18.1227 55.202 17.888C54.7647 17.6533 54.4367 17.3413 54.218 16.952C53.9993 16.5627 53.89 16.1387 53.89 15.68C53.89 15.2107 53.9833 14.8107 54.17 14.48C54.362 14.144 54.6207 13.8693 54.946 13.656C55.2767 13.4427 55.658 13.28 56.09 13.168C56.5273 13.0613 57.01 12.968 57.538 12.888C58.0713 12.8027 58.5913 12.7307 59.098 12.672C59.61 12.608 60.058 12.5467 60.442 12.488L60.026 12.744C60.042 11.8907 59.8767 11.2587 59.53 10.848C59.1833 10.4373 58.5807 10.232 57.722 10.232C57.13 10.232 56.6287 10.3653 56.218 10.632C55.8127 10.8987 55.5273 11.32 55.362 11.896L54.218 11.56C54.4153 10.7867 54.8127 10.1867 55.41 9.76C56.0073 9.33333 56.7833 9.12 57.738 9.12C58.5273 9.12 59.1967 9.26933 59.746 9.568C60.3007 9.86133 60.6927 10.288 60.922 10.848C61.0287 11.0987 61.098 11.3787 61.13 11.688C61.162 11.9973 61.178 12.312 61.178 12.632V18H60.13V15.832L60.434 15.96C60.1407 16.7013 59.6847 17.2667 59.066 17.656C58.4473 18.0453 57.706 18.24 56.842 18.24ZM56.978 17.224C57.5273 17.224 58.0073 17.1253 58.418 16.928C58.8287 16.7307 59.1593 16.4613 59.41 16.12C59.6607 15.7733 59.8233 15.384 59.898 14.952C59.962 14.6747 59.9967 14.3707 60.002 14.04C60.0073 13.704 60.01 13.4533 60.01 13.288L60.458 13.52C60.058 13.5733 59.6233 13.6267 59.154 13.68C58.69 13.7333 58.2313 13.7947 57.778 13.864C57.33 13.9333 56.9247 14.016 56.562 14.112C56.3167 14.1813 56.0793 14.28 55.85 14.408C55.6207 14.5307 55.4313 14.696 55.282 14.904C55.138 15.112 55.066 15.3707 55.066 15.68C55.066 15.9307 55.1273 16.1733 55.25 16.408C55.378 16.6427 55.5807 16.8373 55.858 16.992C56.1407 17.1467 56.514 17.224 56.978 17.224ZM63.2526 18V9.36H64.3006L67.6686 16.432L71.0446 9.36H72.0846V18H70.9486V11.872L68.0446 18H67.3006L64.3966 11.872V18H63.2526ZM74.3151 18V9.36H75.3631L78.7311 16.432L82.1071 9.36H83.1471V18H82.0111V11.872L79.1071 18H78.3631L75.4591 11.872V18H74.3151ZM88.5808 18L88.5888 9.36H89.7728V13.52L93.6288 9.36H95.1968L91.1488 13.68L95.7248 18H94.0128L89.7728 13.84V18H88.5808ZM98.9983 18.24C98.3476 18.24 97.8009 18.1227 97.3583 17.888C96.9209 17.6533 96.5929 17.3413 96.3743 16.952C96.1556 16.5627 96.0463 16.1387 96.0463 15.68C96.0463 15.2107 96.1396 14.8107 96.3263 14.48C96.5183 14.144 96.7769 13.8693 97.1023 13.656C97.4329 13.4427 97.8143 13.28 98.2463 13.168C98.6836 13.0613 99.1663 12.968 99.6943 12.888C100.228 12.8027 100.748 12.7307 101.254 12.672C101.766 12.608 102.214 12.5467 102.598 12.488L102.182 12.744C102.198 11.8907 102.033 11.2587 101.686 10.848C101.34 10.4373 100.737 10.232 99.8783 10.232C99.2863 10.232 98.7849 10.3653 98.3743 10.632C97.9689 10.8987 97.6836 11.32 97.5182 11.896L96.3743 11.56C96.5716 10.7867 96.9689 10.1867 97.5663 9.76C98.1636 9.33333 98.9396 9.12 99.8943 9.12C100.684 9.12 101.353 9.26933 101.902 9.568C102.457 9.86133 102.849 10.288 103.078 10.848C103.185 11.0987 103.254 11.3787 103.286 11.688C103.318 11.9973 103.334 12.312 103.334 12.632V18H102.286V15.832L102.59 15.96C102.297 16.7013 101.841 17.2667 101.222 17.656C100.604 18.0453 99.8623 18.24 98.9983 18.24ZM99.1343 17.224C99.6836 17.224 100.164 17.1253 100.574 16.928C100.985 16.7307 101.316 16.4613 101.566 16.12C101.817 15.7733 101.98 15.384 102.054 14.952C102.118 14.6747 102.153 14.3707 102.158 14.04C102.164 13.704 102.166 13.4533 102.166 13.288L102.614 13.52C102.214 13.5733 101.78 13.6267 101.31 13.68C100.846 13.7333 100.388 13.7947 99.9343 13.864C99.4863 13.9333 99.0809 14.016 98.7183 14.112C98.4729 14.1813 98.2356 14.28 98.0063 14.408C97.7769 14.5307 97.5876 14.696 97.4383 14.904C97.2943 15.112 97.2223 15.3707 97.2223 15.68C97.2223 15.9307 97.2836 16.1733 97.4062 16.408C97.5343 16.6427 97.7369 16.8373 98.0143 16.992C98.2969 17.1467 98.6703 17.224 99.1343 17.224ZM105.409 18V9.36H106.585V13.112H111.457V9.36H112.633V18H111.457V14.24H106.585V18H105.409ZM117.342 18.24C116.691 18.24 116.145 18.1227 115.702 17.888C115.265 17.6533 114.937 17.3413 114.718 16.952C114.499 16.5627 114.39 16.1387 114.39 15.68C114.39 15.2107 114.483 14.8107 114.67 14.48C114.862 14.144 115.121 13.8693 115.446 13.656C115.777 13.4427 116.158 13.28 116.59 13.168C117.027 13.0613 117.51 12.968 118.038 12.888C118.571 12.8027 119.091 12.7307 119.598 12.672C120.11 12.608 120.558 12.5467 120.942 12.488L120.526 12.744C120.542 11.8907 120.377 11.2587 120.03 10.848C119.683 10.4373 119.081 10.232 118.222 10.232C117.63 10.232 117.129 10.3653 116.718 10.632C116.313 10.8987 116.027 11.32 115.862 11.896L114.718 11.56C114.915 10.7867 115.313 10.1867 115.91 9.76C116.507 9.33333 117.283 9.12 118.238 9.12C119.027 9.12 119.697 9.26933 120.246 9.568C120.801 9.86133 121.193 10.288 121.422 10.848C121.529 11.0987 121.598 11.3787 121.63 11.688C121.662 11.9973 121.678 12.312 121.678 12.632V18H120.63V15.832L120.934 15.96C120.641 16.7013 120.185 17.2667 119.566 17.656C118.947 18.0453 118.206 18.24 117.342 18.24ZM117.478 17.224C118.027 17.224 118.507 17.1253 118.918 16.928C119.329 16.7307 119.659 16.4613 119.91 16.12C120.161 15.7733 120.323 15.384 120.398 14.952C120.462 14.6747 120.497 14.3707 120.502 14.04C120.507 13.704 120.51 13.4533 120.51 13.288L120.958 13.52C120.558 13.5733 120.123 13.6267 119.654 13.68C119.19 13.7333 118.731 13.7947 118.278 13.864C117.83 13.9333 117.425 14.016 117.062 14.112C116.817 14.1813 116.579 14.28 116.35 14.408C116.121 14.5307 115.931 14.696 115.782 14.904C115.638 15.112 115.566 15.3707 115.566 15.68C115.566 15.9307 115.627 16.1733 115.75 16.408C115.878 16.6427 116.081 16.8373 116.358 16.992C116.641 17.1467 117.014 17.224 117.478 17.224ZM122.961 18V16.968C123.281 17.0267 123.523 17.0133 123.689 16.928C123.859 16.8373 123.985 16.688 124.065 16.48C124.145 16.2667 124.211 16.0027 124.265 15.688C124.35 15.1653 124.427 14.5893 124.497 13.96C124.566 13.3307 124.627 12.6373 124.681 11.88C124.739 11.1173 124.798 10.2773 124.857 9.36H130.729V18H129.561V10.488H125.945C125.907 11.0533 125.865 11.616 125.817 12.176C125.769 12.736 125.718 13.2747 125.665 13.792C125.617 14.304 125.563 14.776 125.505 15.208C125.446 15.64 125.385 16.0133 125.321 16.328C125.225 16.8027 125.097 17.1813 124.937 17.464C124.782 17.7467 124.55 17.9333 124.241 18.024C123.931 18.1147 123.505 18.1067 122.961 18Z" fill="#5C5C5C"/>
<path fill-rule="evenodd" clip-rule="evenodd" d="M4.6381 37.6421L17.4666 35.0053C20.5817 34.3651 23.1351 37.4765 21.8992 40.4068L16.8089 52.4761C15.3144 55.9989 10.1736 55.5617 9.32202 51.8159L8.51895 48.2836C8.34821 47.5326 7.83344 46.9053 7.1302 46.5913L3.82252 45.1144C0.320376 43.5506 0.877265 38.4127 4.6381 37.6421ZM4.939 39.1117C2.609 39.5888 2.26029 42.7741 4.4341 43.7447L7.74177 45.2216C8.87612 45.7281 9.70622 46.7396 9.98163 47.951L10.7847 51.4833C11.3111 53.7989 14.4973 54.0828 15.4278 51.8909C15.4277 51.8911 15.4278 51.8907 15.4278 51.8909L20.5171 39.8239C21.2837 38.0061 19.701 36.0774 17.7686 36.4746L4.939 39.1117Z" fill="#DEDEDE"/>
<path d="M39.256 51.68C38.4027 51.68 37.6133 51.5307 36.888 51.232C36.1627 50.9387 35.5307 50.528 34.992 50C34.4533 49.4667 34.032 48.84 33.728 48.12C33.4293 47.4 33.28 46.616 33.28 45.768C33.28 44.8667 33.4267 44.0453 33.72 43.304C34.0133 42.5573 34.4267 41.9147 34.96 41.376C35.4987 40.832 36.136 40.4133 36.872 40.12C37.608 39.8267 38.416 39.68 39.296 39.68C40.304 39.68 41.184 39.8427 41.936 40.168C42.6933 40.488 43.3173 40.9253 43.808 41.48C44.2987 42.0293 44.656 42.648 44.88 43.336C45.1093 44.024 45.2053 44.736 45.168 45.472C45.1147 46.48 44.8747 47.24 44.448 47.752C44.0267 48.264 43.4373 48.52 42.68 48.52C42.1893 48.52 41.7627 48.4053 41.4 48.176C41.0373 47.9467 40.7947 47.624 40.672 47.208L41.056 47.248C40.8693 47.6267 40.5893 47.9013 40.216 48.072C39.848 48.2427 39.464 48.328 39.064 48.328C38.5787 48.328 38.152 48.224 37.784 48.016C37.4213 47.8027 37.136 47.5093 36.928 47.136C36.7253 46.7627 36.624 46.3307 36.624 45.84C36.624 45.328 36.7307 44.8853 36.944 44.512C37.1573 44.1387 37.4507 43.8507 37.824 43.648C38.1973 43.4453 38.6187 43.344 39.088 43.344C39.4347 43.344 39.792 43.416 40.16 43.56C40.5333 43.704 40.8187 43.9387 41.016 44.264L40.704 44.616V43.568H41.552L41.544 46.168C41.544 46.5627 41.6347 46.8853 41.816 47.136C42.0027 47.3813 42.3093 47.504 42.736 47.504C43.024 47.504 43.264 47.424 43.456 47.264C43.6533 47.104 43.8053 46.88 43.912 46.592C44.0187 46.2987 44.08 45.9547 44.096 45.56C44.128 44.7493 44.024 44.04 43.784 43.432C43.544 42.824 43.2027 42.3173 42.76 41.912C42.3173 41.5013 41.8027 41.1947 41.216 40.992C40.6347 40.7893 40.0133 40.688 39.352 40.688C38.552 40.688 37.84 40.8213 37.216 41.088C36.5973 41.3547 36.072 41.7227 35.64 42.192C35.2133 42.6613 34.8907 43.2027 34.672 43.816C34.4533 44.424 34.3493 45.072 34.36 45.76C34.3653 46.4693 34.4933 47.1253 34.744 47.728C35 48.3253 35.352 48.8453 35.8 49.288C36.248 49.7253 36.7707 50.064 37.368 50.304C37.9653 50.5493 38.6133 50.672 39.312 50.672C39.7653 50.672 40.2187 50.6133 40.672 50.496C41.1307 50.3787 41.5387 50.216 41.896 50.008L42.272 50.904C41.808 51.1653 41.32 51.36 40.808 51.488C40.296 51.616 39.7787 51.68 39.256 51.68ZM39.128 47.304C39.544 47.304 39.8827 47.184 40.144 46.944C40.4107 46.704 40.544 46.3333 40.544 45.832C40.544 45.3413 40.416 44.9707 40.16 44.72C39.9093 44.4693 39.5733 44.344 39.152 44.344C38.672 44.344 38.304 44.4747 38.048 44.736C37.7973 44.9973 37.672 45.3627 37.672 45.832C37.672 46.3067 37.8027 46.672 38.064 46.928C38.3253 47.1787 38.68 47.304 39.128 47.304ZM57.8771 50L57.8851 44.328C57.8851 43.6613 57.6985 43.1387 57.3251 42.76C56.9571 42.376 56.4878 42.184 55.9171 42.184C55.5918 42.184 55.2745 42.2587 54.9651 42.408C54.6558 42.5573 54.3998 42.7973 54.1971 43.128C53.9998 43.4587 53.9011 43.8907 53.9011 44.424L53.2051 44.224C53.1891 43.6053 53.3091 43.064 53.5651 42.6C53.8265 42.136 54.1838 41.776 54.6371 41.52C55.0958 41.2587 55.6131 41.128 56.1891 41.128C57.0585 41.128 57.7545 41.3973 58.2771 41.936C58.7998 42.4693 59.0611 43.192 59.0611 44.104L59.0531 50H57.8771ZM47.5651 50V41.36H48.6211V43.488H48.7491V50H47.5651ZM52.7331 50L52.7411 44.408C52.7411 43.72 52.5571 43.1787 52.1891 42.784C51.8265 42.384 51.3465 42.184 50.7491 42.184C50.1518 42.184 49.6691 42.3893 49.3011 42.8C48.9331 43.2053 48.7491 43.7467 48.7491 44.424L48.0451 44.04C48.0451 43.4853 48.1758 42.9893 48.4371 42.552C48.6985 42.1093 49.0558 41.7627 49.5091 41.512C49.9625 41.256 50.4771 41.128 51.0531 41.128C51.6025 41.128 52.0905 41.2453 52.5171 41.48C52.9491 41.7147 53.2878 42.056 53.5331 42.504C53.7785 42.952 53.9011 43.496 53.9011 44.136L53.8931 50H52.7331ZM63.6076 50.24C62.957 50.24 62.4103 50.1227 61.9676 49.888C61.5303 49.6533 61.2023 49.3413 60.9836 48.952C60.765 48.5627 60.6556 48.1387 60.6556 47.68C60.6556 47.2107 60.749 46.8107 60.9356 46.48C61.1276 46.144 61.3863 45.8693 61.7116 45.656C62.0423 45.4427 62.4236 45.28 62.8556 45.168C63.293 45.0613 63.7756 44.968 64.3036 44.888C64.837 44.8027 65.357 44.7307 65.8636 44.672C66.3756 44.608 66.8236 44.5467 67.2076 44.488L66.7916 44.744C66.8076 43.8907 66.6423 43.2587 66.2956 42.848C65.949 42.4373 65.3463 42.232 64.4876 42.232C63.8956 42.232 63.3943 42.3653 62.9836 42.632C62.5783 42.8987 62.293 43.32 62.1276 43.896L60.9836 43.56C61.181 42.7867 61.5783 42.1867 62.1756 41.76C62.773 41.3333 63.549 41.12 64.5036 41.12C65.293 41.12 65.9623 41.2693 66.5116 41.568C67.0663 41.8613 67.4583 42.288 67.6876 42.848C67.7943 43.0987 67.8636 43.3787 67.8956 43.688C67.9276 43.9973 67.9436 44.312 67.9436 44.632V50H66.8956V47.832L67.1996 47.96C66.9063 48.7013 66.4503 49.2667 65.8316 49.656C65.213 50.0453 64.4716 50.24 63.6076 50.24ZM63.7436 49.224C64.293 49.224 64.773 49.1253 65.1836 48.928C65.5943 48.7307 65.925 48.4613 66.1756 48.12C66.4263 47.7733 66.589 47.384 66.6636 46.952C66.7276 46.6747 66.7623 46.3707 66.7676 46.04C66.773 45.704 66.7756 45.4533 66.7756 45.288L67.2236 45.52C66.8236 45.5733 66.389 45.6267 65.9196 45.68C65.4556 45.7333 64.997 45.7947 64.5436 45.864C64.0956 45.9333 63.6903 46.016 63.3276 46.112C63.0823 46.1813 62.845 46.28 62.6156 46.408C62.3863 46.5307 62.197 46.696 62.0476 46.904C61.9036 47.112 61.8316 47.3707 61.8316 47.68C61.8316 47.9307 61.893 48.1733 62.0156 48.408C62.1436 48.6427 62.3463 48.8373 62.6236 48.992C62.9063 49.1467 63.2796 49.224 63.7436 49.224ZM70.0183 50L70.0263 38.48H71.2103V45.52L75.0663 41.36H76.6343L72.5863 45.68L77.1623 50H75.4503L71.2103 45.84V50H70.0183ZM84.2038 50V45.592C84.2038 45.112 84.1584 44.672 84.0678 44.272C83.9771 43.8667 83.8304 43.5147 83.6278 43.216C83.4304 42.912 83.1718 42.6773 82.8518 42.512C82.5371 42.3467 82.1531 42.264 81.6998 42.264C81.2838 42.264 80.9158 42.336 80.5958 42.48C80.2811 42.624 80.0144 42.832 79.7958 43.104C79.5824 43.3707 79.4198 43.696 79.3078 44.08C79.1958 44.464 79.1398 44.9013 79.1398 45.392L78.3078 45.208C78.3078 44.3227 78.4624 43.5787 78.7718 42.976C79.0811 42.3733 79.5078 41.9173 80.0518 41.608C80.5958 41.2987 81.2198 41.144 81.9238 41.144C82.4411 41.144 82.8918 41.224 83.2758 41.384C83.6651 41.544 83.9931 41.76 84.2598 42.032C84.5318 42.304 84.7504 42.616 84.9158 42.968C85.0811 43.3147 85.2011 43.6853 85.2758 44.08C85.3504 44.4693 85.3878 44.8587 85.3878 45.248V50H84.2038ZM77.9558 50V38.48H79.0198V44.984H79.1398V50H77.9558ZM91.0718 50.24C90.2131 50.24 89.4798 50.0453 88.8718 49.656C88.2638 49.2667 87.7971 48.728 87.4718 48.04C87.1464 47.352 86.9838 46.5627 86.9838 45.672C86.9838 44.7653 87.1491 43.9707 87.4798 43.288C87.8104 42.6053 88.2798 42.0747 88.8878 41.696C89.5011 41.312 90.2291 41.12 91.0718 41.12C91.9358 41.12 92.6718 41.3147 93.2798 41.704C93.8931 42.088 94.3598 42.624 94.6798 43.312C95.0051 43.9947 95.1678 44.7813 95.1678 45.672C95.1678 46.5787 95.0051 47.376 94.6798 48.064C94.3544 48.7467 93.8851 49.28 93.2718 49.664C92.6584 50.048 91.9251 50.24 91.0718 50.24ZM91.0718 49.112C92.0318 49.112 92.7464 48.7947 93.2158 48.16C93.6851 47.52 93.9198 46.6907 93.9198 45.672C93.9198 44.6267 93.6824 43.7947 93.2078 43.176C92.7384 42.5573 92.0264 42.248 91.0718 42.248C90.4264 42.248 89.8931 42.3947 89.4718 42.688C89.0558 42.976 88.7438 43.3787 88.5358 43.896C88.3331 44.408 88.2318 45 88.2318 45.672C88.2318 46.712 88.4718 47.5467 88.9518 48.176C89.4318 48.8 90.1384 49.112 91.0718 49.112ZM98.956 50L95.82 41.36H97.012L99.564 48.464L102.1 41.36H103.308L100.172 50H98.956ZM104.905 39.72V38.4H106.081V39.72H104.905ZM104.905 50V41.36H106.081V50H104.905ZM113.183 50C112.698 50.1013 112.218 50.1413 111.743 50.12C111.274 50.0987 110.853 49.9973 110.479 49.816C110.111 49.6347 109.831 49.352 109.639 48.968C109.485 48.648 109.399 48.3253 109.383 48C109.373 47.6693 109.367 47.2933 109.367 46.872V38.96H110.535V46.824C110.535 47.1867 110.538 47.4907 110.543 47.736C110.554 47.976 110.61 48.1893 110.711 48.376C110.903 48.7333 111.207 48.9467 111.623 49.016C112.045 49.0853 112.565 49.0693 113.183 48.968V50ZM107.519 42.368V41.36H113.183V42.368H107.519ZM118.11 50.232C117.096 50.232 116.262 50.0133 115.606 49.576C114.955 49.1387 114.555 48.5307 114.406 47.752L115.606 47.552C115.734 48.0427 116.024 48.4347 116.478 48.728C116.936 49.016 117.502 49.16 118.174 49.16C118.83 49.16 119.347 49.024 119.726 48.752C120.104 48.4747 120.294 48.0987 120.294 47.624C120.294 47.3573 120.232 47.1413 120.11 46.976C119.992 46.8053 119.75 46.648 119.382 46.504C119.014 46.36 118.464 46.1893 117.734 45.992C116.95 45.7787 116.336 45.5653 115.894 45.352C115.451 45.1387 115.136 44.8933 114.95 44.616C114.763 44.3333 114.67 43.9893 114.67 43.584C114.67 43.0933 114.808 42.664 115.086 42.296C115.363 41.9227 115.747 41.6347 116.238 41.432C116.728 41.224 117.299 41.12 117.95 41.12C118.6 41.12 119.182 41.2267 119.694 41.44C120.211 41.648 120.627 41.9413 120.942 42.32C121.256 42.6987 121.443 43.1387 121.502 43.64L120.302 43.856C120.222 43.3493 119.968 42.9493 119.542 42.656C119.12 42.3573 118.584 42.2027 117.934 42.192C117.32 42.176 116.822 42.2933 116.438 42.544C116.054 42.7893 115.862 43.1173 115.862 43.528C115.862 43.7573 115.931 43.9547 116.07 44.12C116.208 44.28 116.459 44.432 116.822 44.576C117.19 44.72 117.712 44.8773 118.39 45.048C119.184 45.2507 119.808 45.464 120.262 45.688C120.715 45.912 121.038 46.176 121.23 46.48C121.422 46.784 121.518 47.16 121.518 47.608C121.518 48.424 121.214 49.0667 120.606 49.536C120.003 50 119.171 50.232 118.11 50.232ZM123.284 50L123.292 38.48H124.476V45.52L128.332 41.36H129.9L125.852 45.68L130.428 50H128.716L124.476 45.84V50H123.284ZM131.389 39.72V38.4H132.565V39.72H131.389ZM131.389 50V41.36H132.565V50H131.389ZM135.124 39.72V38.4H136.3V39.72H135.124ZM135.124 50V41.36H136.3V50H135.124Z" fill="#DEDEDE"/>
</svg>
