<svg width="90" height="90" viewBox="0 0 90 90" fill="none" xmlns="http://www.w3.org/2000/svg">
<g filter="url(#filter0_b_3113_2976)">
<circle cx="45" cy="45" r="45" fill="white" fill-opacity="0.07"/>
<circle cx="45" cy="45" r="44.25" stroke="white" stroke-opacity="0.08" stroke-width="1.5"/>
</g>
<path d="M42.975 55.665V34.335C42.975 32.31 42.12 31.5 39.96 31.5H34.515C32.355 31.5 31.5 32.31 31.5 34.335V55.665C31.5 57.69 32.355 58.5 34.515 58.5H39.96C42.12 58.5 42.975 57.69 42.975 55.665Z" stroke="white" stroke-width="2.25" stroke-linecap="round" stroke-linejoin="round"/>
<path d="M58.5004 55.665V34.335C58.5004 32.31 57.6454 31.5 55.4854 31.5H50.0404C47.8954 31.5 47.0254 32.31 47.0254 34.335V55.665C47.0254 57.69 47.8804 58.5 50.0404 58.5H55.4854C57.6454 58.5 58.5004 57.69 58.5004 55.665Z" stroke="white" stroke-width="2.25" stroke-linecap="round" stroke-linejoin="round"/>
<defs>
<filter id="filter0_b_3113_2976" x="-20.55" y="-20.55" width="131.1" height="131.1" filterUnits="userSpaceOnUse" color-interpolation-filters="sRGB">
<feFlood flood-opacity="0" result="BackgroundImageFix"/>
<feGaussianBlur in="BackgroundImageFix" stdDeviation="10.275"/>
<feComposite in2="SourceAlpha" operator="in" result="effect1_backgroundBlur_3113_2976"/>
<feBlend mode="normal" in="SourceGraphic" in2="effect1_backgroundBlur_3113_2976" result="shape"/>
</filter>
</defs>
</svg>
