<svg width="20" height="22" viewBox="0 0 20 22" fill="none" xmlns="http://www.w3.org/2000/svg">
<path d="M-5.5037 10.4544H-0.110863C0.104767 10.4544 0.268059 10.6443 0.226189 10.8505L-1.47582 19.1175C-3.67399 20.6371 -6.61744 21.498 -9.91469 21.498C-16.3626 21.498 -20.5831 17.8545 -20.5831 12.5196C-20.5831 5.46305 -15.1442 0.5 -7.2099 0.5C-2.99151 0.5 0.0628967 1.75693 2.03497 4.16975C2.1522 4.31322 2.1208 4.52136 1.97216 4.63251L-2.51628 7.99105C-2.66073 8.10017 -2.87008 8.07794 -2.98732 7.94457C-4.26854 6.47142 -5.67537 5.98239 -7.53648 5.98239C-11.1917 5.98239 -13.5092 8.50635 -13.5092 12.0932C-13.5092 14.4454 -11.8156 16.0237 -8.93284 16.0237C-8.25036 16.0237 -7.56578 15.9368 -6.88331 15.7367L-5.83866 10.7252C-5.80935 10.5655 -5.66699 10.4544 -5.5037 10.4544Z" fill="#E6E6E6" fill-opacity="0.68"/>
<path d="M-0.632462 19.1822L1.75621 14.7728C1.84623 14.6071 2.05767 14.5485 2.22725 14.6374C4.44844 15.8115 6.71778 16.3349 8.9327 16.3349C10.7457 16.3349 11.6961 15.8762 11.6961 15.1588C11.6961 13.0349 1.80017 14.2696 1.80017 8.04359C1.80017 3.48268 5.75269 0.5 12.32 0.5C15.2655 0.5 17.9117 1.04763 19.8272 2.06611C19.9863 2.15098 20.045 2.34296 19.9633 2.50058L17.7442 6.83718C17.6563 7.00895 17.4365 7.06755 17.2648 6.9746C15.6633 6.09353 13.7687 5.66513 11.8761 5.66513C9.82662 5.66513 8.81546 6.3239 8.81546 7.01299C8.81546 9.22171 18.7407 7.81524 18.7407 14.013C18.7407 18.487 14.6982 21.5 8.22091 21.5C4.68082 21.5 1.51965 20.718 -0.492199 19.6267C-0.657585 19.5378 -0.720387 19.3418 -0.632462 19.1822Z" fill="#E6E6E6" fill-opacity="0.68"/>
<path d="M-27.7202 1.21936L-29.397 8.58916C-29.4305 8.73264 -29.3615 8.88016 -29.2275 8.95088L-25.3294 11.0222C-25.1326 11.1273 -25.0907 11.3839 -25.2477 11.5415L-33.3496 19.6671C-33.5903 19.9096 -34.009 19.6914 -33.9315 19.364L-32.1709 11.9255C-32.1395 11.7901 -32.1981 11.6486 -32.3216 11.5718L-36.337 9.09638C-36.5212 8.98322 -36.5505 8.73668 -36.3977 8.58714L-29.2568 1.52248C-29.0453 1.31231 -29.1982 0.960698 -29.5017 0.960698H-38.2797C-38.443 0.960698 -38.5833 1.07184 -38.6168 1.22744L-40.8505 12.0043C-41.7486 17.6039 -38.5372 21.5 -32.8911 21.5C-29.106 21.5 -25.9846 20.4795 -23.4243 18.8649L-19.8403 1.35677C-19.7984 1.15267 -19.9596 0.960698 -20.1773 0.960698H-27.3852C-27.5464 0.960698 -27.6846 1.0678 -27.7202 1.21936Z" fill="#E6E6E6" fill-opacity="0.68"/>
</svg>
