<svg width="80" height="16" viewBox="0 0 80 16" fill="none" xmlns="http://www.w3.org/2000/svg">
<path fill-rule="evenodd" clip-rule="evenodd" d="M0.296875 0.950834V15.1082H2.31501V10.3891H5.37106C8.36944 10.3891 9.92628 8.05866 9.92628 5.66997C9.92628 3.28127 8.4271 0.950834 5.37106 0.950834H0.296875ZM2.37268 8.40823V3.04823H5.42872C7.15856 3.04823 7.96581 4.38823 7.96581 5.72823C7.96581 7.06823 7.10089 8.40823 5.42872 8.40823H2.37268ZM14.0202 9.10736H20.363V7.06823H14.0202V3.04823H20.4783V1.0091H11.9444V15.1665H20.4783V13.1274H14.0202V9.10736ZM25.6101 8.93258L30.742 15.1665H33.3367L28.8968 9.86475C31.3186 9.45692 32.5295 7.53432 32.5295 5.55345C32.5295 3.28127 31.0303 1.06736 27.9742 1.06736H22.8424V15.2247H24.8605V3.04823H27.9742C29.7041 3.04823 30.5113 4.27171 30.5113 5.49518C30.5113 6.71866 29.6464 7.94214 27.9742 7.94214H25.6101V8.93258ZM36.5657 9.10736H42.1589V7.18475H36.5657V2.93171H42.9085V0.950834H34.5476V15.1082H36.5657V9.10736ZM46.4834 9.10736H52.8262V7.06823H46.4834V3.04823H52.9415V1.0091H44.4076V15.1665H52.9415V13.1274H46.4258V9.10736H46.4834ZM54.6713 8.11692C54.6713 10.0978 55.4786 11.8456 56.6895 13.1274C57.9003 14.4091 59.6302 15.2247 61.533 15.2247C64.8197 15.2247 67.3568 13.0108 68.164 9.80649H66.2036C65.454 11.9621 63.6665 13.1856 61.533 13.1856C60.2068 13.1856 58.9959 12.603 58.0733 11.6708C57.2084 10.7387 56.6318 9.51519 56.6318 8.05867C56.6318 6.60215 57.2084 5.3204 58.0733 4.44649C58.9382 3.51431 60.1491 2.93171 61.533 2.93171C63.6088 2.93171 65.3386 3.9804 66.0306 6.13606H68.0487C67.2415 2.93171 64.7044 0.892578 61.533 0.892578C59.6302 0.892578 57.9003 1.70823 56.6895 2.98996C55.4786 4.32996 54.6713 6.07779 54.6713 8.11692ZM75.0834 15.1082V2.87344H79.2926V0.950834H68.7983V2.87344H73.0652V15.1082H75.0834Z" fill="#E6E6E6" fill-opacity="0.68"/>
</svg>
