<svg width="15" height="26" viewBox="0 0 15 26" fill="none" xmlns="http://www.w3.org/2000/svg">
<path d="M18.212 21.3255C18.4917 21.8677 18.1051 22.5695 17.4707 22.5695H12.7815C12.4654 22.5855 12.1539 22.4146 12.0015 22.107L8.47212 15.2783H6.5005V21.7082C6.5005 22.1844 6.1321 22.5695 5.66591 22.5695L1.42475 22.5627C0.965388 22.5627 0.587891 22.1799 0.587891 21.7082V4.28912C0.587891 3.81748 0.963114 3.43241 1.42475 3.43241L5.66591 3.43469C6.1321 3.43469 6.5005 3.81975 6.5005 4.28912V10.2656H7.95818L11.2078 3.8995C11.3488 3.6033 11.6467 3.43013 11.9492 3.43013H16.627C17.2774 3.43013 17.6662 4.16153 17.3524 4.71065L13.5115 12.3117L18.212 21.3255ZM34.317 3.43013H20.527C20.0631 3.43013 19.6902 3.81748 19.6902 4.28685V21.7082C19.6902 22.1844 20.0631 22.5695 20.527 22.5695H34.317C34.781 22.5695 35.1539 22.1844 35.1539 21.7082V18.1834C35.1539 17.7163 34.781 17.329 34.317 17.329H25.6028V15.2783H31.0878C31.554 15.2783 31.9247 14.8933 31.9247 14.4216V11.1223C31.9247 10.6484 31.5518 10.2656 31.0878 10.2656H25.6028V8.44283H34.317C34.781 8.44283 35.1539 8.05548 35.1539 7.58155V4.28912C35.1516 3.81748 34.781 3.43013 34.317 3.43013ZM52.8917 8.44283H50.8451V17.5568H52.8917V8.44283ZM58.8043 4.28912V21.7082C58.8043 22.1844 58.4291 22.5695 57.9629 22.5695H50.8451V24.8959C50.8451 25.3766 50.4767 25.7594 50.0105 25.7594H45.7693C45.3054 25.7594 44.9324 25.3766 44.9324 24.8959V22.5695C42.6334 22.5695 40.1068 22.5627 37.8078 22.5627C37.3484 22.5627 36.9754 22.1799 36.9754 21.7082L36.9732 4.28912C36.9732 3.81748 37.3484 3.43241 37.8078 3.43241H44.9324V1.10151C44.9324 0.6253 45.078 0.240234 45.5419 0.240234H49.7831C50.2492 0.240234 50.8451 0.623022 50.8451 1.10151V3.43013C53.3761 3.43013 55.6706 3.43241 57.9629 3.43241C58.4314 3.43241 58.8043 3.81748 58.8043 4.28912ZM44.9324 8.44283H42.8858V17.5568H44.9324V8.44283ZM76.6126 3.43013H72.7899C72.5693 3.43013 72.3237 3.49165 72.1987 3.68304L66.5362 12.5441V4.28912C66.5362 3.81748 66.161 3.43241 65.6948 3.43241H61.465C61.0011 3.43241 60.6236 3.81975 60.6236 4.28912V21.7082C60.6236 22.1844 61.0011 22.5695 61.465 22.5695H65.4651C65.7789 22.5695 66.0336 22.3804 66.1951 22.132L71.5392 13.7973V21.7082C71.5392 22.1844 71.9167 22.5695 72.3738 22.5695H76.6149C77.0766 22.5695 77.4518 22.1844 77.4518 21.7082V4.28912C77.4495 3.81748 77.0766 3.43013 76.6126 3.43013ZM89.0496 8.44283H85.1837V12.3163H89.0496V8.44283ZM94.9622 4.28229V16.47C94.9622 16.9416 94.587 17.3244 94.1322 17.3244L85.1837 17.329V21.7151C85.1837 22.1913 84.8084 22.5763 84.3513 22.5763L80.1079 22.5695C79.6463 22.5695 79.271 22.1867 79.271 21.7151V4.28457C79.271 3.81292 79.6417 3.42785 80.1079 3.42785L94.1322 3.43013C94.587 3.42557 94.9622 3.81064 94.9622 4.28229Z" fill="#E6E6E6" fill-opacity="0.68"/>
</svg>
