<svg width="83" height="46" viewBox="0 0 83 46" fill="none" xmlns="http://www.w3.org/2000/svg">
<path d="M28.6389 46L28.2808 45.9977L8.16261 45.9794L8.16936 36.8005L0 36.7959L0.0202714 9.37782L8.18963 9.38468L8.19864 0L28.6727 0.0205704L28.666 9.40296L83 9.45096L82.9977 9.84637L82.9775 36.8667L28.6434 36.8187L28.6389 46ZM8.87886 45.1886L27.9227 45.2046L27.9294 36.0279L82.2635 36.0759L82.2837 10.2418L27.9497 10.1938L27.9565 0.811388L8.91265 0.793103L8.90589 10.1778L0.736526 10.1686L0.716255 36.0028L8.88787 36.0096L8.87886 45.1886Z" fill="#E6E6E6" fill-opacity="0.68"/>
<path d="M76.447 44.9265H77.4876C77.8029 44.9288 78.0507 44.8991 78.2557 44.8122C78.4381 44.7528 78.5732 44.6362 78.6859 44.49C78.8458 44.2843 78.9607 44.0191 79.0507 43.6969C79.1183 43.3472 79.1656 42.9335 79.1656 42.4649C79.1656 41.7907 79.098 41.2924 78.9179 40.9404C78.7602 40.5884 78.5575 40.3256 78.3075 40.209C78.1498 40.1199 77.8547 40.0925 77.4696 40.0925L76.4493 40.0902L76.447 44.9265ZM75.7893 45.6922L75.7938 39.3565L77.4921 39.3588C77.8547 39.3588 78.1498 39.3885 78.3548 39.4456C78.6476 39.5051 78.8728 39.6811 79.0778 39.8868C79.3255 40.1816 79.5305 40.5313 79.6431 40.9724C79.776 41.4113 79.8458 41.9095 79.8436 42.4969C79.8436 42.9655 79.7985 43.3769 79.7084 43.7586C79.6183 44.138 79.526 44.4328 79.3909 44.6957C79.2309 44.9311 79.0958 45.1368 78.9381 45.2534C78.7782 45.3996 78.5755 45.5185 78.348 45.5756C78.1205 45.6625 77.8502 45.6945 77.5552 45.6945L75.7893 45.6922ZM70.8544 45.6853L70.8611 39.3542H71.5166L74.0955 44.314L74.0978 39.3565L74.7082 39.3588L74.7037 45.6922H74.0482L71.4715 40.7027L71.4693 45.6899L70.8544 45.6853ZM67.1672 43.0729L68.843 43.0752L68.3249 41.3153C68.165 40.7873 68.0524 40.3485 67.9848 39.9965C67.915 40.4056 67.8249 40.817 67.7123 41.2284L67.1672 43.0729ZM65.7617 45.6808L67.6447 39.3497H68.3475L70.3318 45.683H69.6088L69.0457 43.7471L66.9848 43.7449L66.4397 45.6808H65.7617ZM62.4598 45.6785L62.462 39.3428L63.1197 39.3451L63.1152 44.9151L65.514 44.9197L65.5117 45.6808L62.4598 45.6785ZM57.5473 45.6762L57.5518 39.3405H58.2095L60.7862 44.3003L60.7907 39.3428H61.4011L61.3966 45.6785H60.7412L58.1667 40.689L58.1622 45.6762H57.5473ZM55.7634 39.3382L56.4211 39.3405L56.4144 45.6739H55.7589L55.7634 39.3382ZM51.502 45.6693L51.5065 39.3359L54.8107 39.3382V40.0719L52.1642 40.0696V42.0352L54.4481 42.0375V42.7986L52.1642 42.7963L52.1596 45.6693H51.502Z" fill="#E6E6E6" fill-opacity="0.68"/>
<path d="M76.7269 29.0603L78.8103 29.0626L78.8171 17.2437L76.7382 17.2414L76.7269 29.0603ZM70.5081 19.3213C70.6477 19.2893 70.8504 19.2619 71.1433 19.2619C72.4564 19.2642 73.3371 20.4664 73.3371 22.928C73.3326 25.8604 72.3595 27.033 71.0036 27.001C70.8437 27.001 70.641 27.0032 70.5036 26.9735L70.5081 19.3213ZM68.4449 28.994C68.8751 29.0534 69.5508 29.1426 70.436 29.1449C72.0194 29.1449 73.2425 28.7334 74.0578 27.8261C74.8281 26.9781 75.5084 25.4536 75.5106 22.9303C75.5129 20.7613 74.9948 19.2642 74.1096 18.3248C73.3416 17.5317 72.346 17.15 70.8527 17.15C69.9247 17.1477 69.0643 17.2643 68.4517 17.3832L68.4449 28.994ZM66.7782 17.2346L64.8997 17.2323L64.8974 20.0459C64.8952 21.9818 64.9627 23.8583 65.0754 25.2091L65.0528 25.2068C64.7127 24.032 64.2172 22.5098 63.8118 21.4538L62.2509 17.23L60.0346 17.2277L60.0255 29.042L61.8815 29.0443L61.8837 26.1393C61.8837 24.0297 61.841 22.2126 61.7959 20.8321H61.841C62.1585 22.0641 62.6788 23.6183 63.109 24.7314L64.6902 29.0443H66.7714L66.7782 17.2346ZM58.361 17.2277L56.4826 17.2254L56.4803 20.039C56.478 21.9749 56.5681 23.8514 56.6582 25.2022H56.6357C56.2956 24.0274 55.7978 22.5029 55.3924 21.4469L53.8315 17.2232L51.6152 17.2209L51.6084 29.0374L53.4644 29.0397V26.137C53.4644 24.0251 53.4216 22.2081 53.3788 20.8298H53.4238C53.7392 22.0618 54.2572 23.616 54.6874 24.7314L56.2911 29.0443L58.3498 29.0466L58.361 17.2277ZM45.973 24.2537L46.3829 21.8766C46.4978 21.2024 46.6554 20.119 46.7681 19.3853H46.7906C46.9032 20.119 47.0609 21.175 47.1735 21.8766L47.5789 24.2537H45.973ZM48.1735 17.2186L45.5473 17.2163L43.117 29.0306L45.2229 29.0329L45.723 26.2787L47.8289 26.281L48.347 29.0374L50.498 29.0397L48.1735 17.2186ZM42.3512 26.5964C42.0336 26.7747 41.5133 26.889 41.038 26.889C39.5672 26.8867 38.6167 25.5953 38.619 23.1314C38.6212 20.4641 39.7091 19.3213 41.0223 19.3236C41.6101 19.3236 42.0403 19.4699 42.3579 19.6756L42.7205 17.4769C42.4728 17.3032 41.8376 17.0655 40.9096 17.0655C38.5559 17.0632 36.4274 19.0539 36.4252 23.2777C36.4229 26.5621 37.8014 29.1723 40.6979 29.1769C41.5831 29.1791 42.3061 28.9734 42.6237 28.7677L42.3512 26.5964ZM35.2945 17.5569C34.8665 17.294 34.1863 17.0586 33.3259 17.0586C31.1997 17.0563 30.0217 18.6082 30.0194 20.6333C30.0194 22.0412 30.7649 23.184 32.2132 24.0365C33.1615 24.5965 33.5691 25.0056 33.5691 25.7096C33.5669 26.4113 33.1367 26.9095 32.256 26.9095C31.5307 26.9095 30.7627 26.617 30.2874 26.2924L29.9248 28.5483C30.3528 28.8729 31.2605 29.1654 32.1884 29.1654C34.3823 29.1677 35.6526 27.6432 35.6548 25.4742C35.6571 24.0045 35.0467 22.8617 33.5984 22.0115C32.4903 21.367 32.1276 21.0424 32.1299 20.3681C32.1299 19.7807 32.5128 19.2825 33.3056 19.2825C34.0534 19.2848 34.5962 19.5773 34.9116 19.783L35.2945 17.5569Z" fill="#E6E6E6" fill-opacity="0.68"/>
<path fill-rule="evenodd" clip-rule="evenodd" d="M17.6445 12.0774C17.1445 12.1071 16.9891 12.3699 16.6715 11.8419C16.6715 11.6065 17.3269 10.93 17.6445 12.0774ZM25.8747 25.6607C25.422 24.0585 24.8499 22.7397 23.6088 22.7991C23.289 22.39 22.9016 22.054 22.3903 21.8734C21.7551 21.6975 21.2799 21.814 20.6244 21.8415C19.6041 21.8712 18.0882 21.7797 17.7301 20.8724L17.2774 19.9924C17.1197 20.7558 16.8472 22.0152 15.6016 22.5111C15.7818 22.2186 15.9417 22.1294 16.1692 21.7797C17.3224 20.0793 17.2346 17.7045 17.5972 15.7412C16.7143 15.7686 16.1715 15.6498 15.7886 15.0944C16.4665 15.5652 17.0319 15.6223 17.9373 15.4486C18.6401 15.2703 19.523 15.5355 20.1357 15.1264C20.451 14.8909 20.1582 15.0669 20.5433 14.4818C20.701 14.2761 20.5884 14.5412 20.6785 14.2464C21.1785 12.4568 19.3 12.6922 18.9149 12.0454C18.532 11.8694 18.5094 11.6934 18.2144 11.3414C17.9441 10.9894 17.8765 11.0763 17.5589 10.8134C17.1715 10.5003 16.6873 10.2009 16.4305 9.92433C16.6039 9.46035 16.7751 9.0558 16.9711 8.72896C17.1986 8.31984 17.4688 7.96785 17.7864 7.70501C18.3067 7.26617 18.6491 7.17932 18.8968 7.14961C19.1716 7.1199 19.3743 7.17932 19.6446 7.00562C20.1199 6.68335 19.6672 6.24451 19.5996 6.36108C19.5771 6.39079 19.5996 6.62392 19.3518 6.62392C19.1491 6.62392 18.8315 6.53478 18.854 6.50735C19.6469 5.09942 19.0365 3.95662 18.3811 3.45608C17.8157 3.04467 17.0702 3.22066 17.2954 3.51322C17.3405 3.57264 17.5905 3.57264 17.6558 3.60236C17.8833 3.71892 18.1986 3.80806 18.2684 4.13033C17.9734 3.86749 17.4283 3.95662 17.9058 4.36575C18.4689 4.8343 18.4689 5.36455 18.1761 5.94967C17.881 6.59649 17.1783 7.41474 16.658 7.913C16.8179 7.59073 16.953 7.18161 16.7954 6.62392C16.6828 6.30165 16.5003 6.56449 16.5003 6.74049C16.4102 7.95414 15.9034 8.22841 15.6714 8.88438C15.5025 8.93695 15.3268 8.95523 15.1151 8.8661C14.5475 8.1827 14.1173 7.39417 14.1691 6.47536C14.1916 6.21251 13.9889 6.00681 13.784 6.50278C13.624 6.91419 13.5362 7.38503 13.9168 8.41126C12.0406 7.38274 10.3423 6.29479 11.6352 4.24461C12.2906 3.15895 11.5676 3.51322 11.1599 4.12804C11.2748 2.98296 12.633 2.40013 12.6803 2.135C13.1555 0.0825309 5.93217 5.73482 13.1037 8.99637C13.7434 9.28436 14.2637 9.6592 14.7412 10.1209L14.8426 10.5254C14.3223 10.7883 14.302 9.73234 13.5092 9.49692C12.8965 10.3472 13.0992 11.0214 13.6421 11.5814C13.7547 11.7277 13.7547 11.9631 13.7794 12.1665C13.802 12.3722 13.847 12.5779 13.847 12.7813C13.847 13.0167 13.9168 12.811 13.847 12.987C11.3762 17.2977 10.6937 23.9831 12.7276 28.3851C12.9528 28.8811 13.1105 29.4388 13.1353 29.6125C13.4506 30.6113 13.6758 31.2261 13.9686 32.1929L14.6241 34.4237C14.7818 36.2705 15.3223 38.0304 14.8223 40.8736C14.5948 41.461 14.6173 41.813 14.5948 42.4256C14.5948 42.6038 15.3629 42.693 15.7931 42.5741L15.9102 38.7046L15.9124 33.9254C15.9124 33.546 15.9124 33.722 15.8651 33.3974L15.6422 31.4341C15.5971 30.8764 15.5295 30.817 15.5295 30.0833C15.0092 30.1999 14.3088 29.6719 14.061 29.0274C14.5115 29.2902 15.1466 29.7039 15.6219 29.5874C16.1399 32.2249 16.2548 30.8467 16.4102 33.2512C16.4553 33.6603 16.4778 34.0717 16.5679 34.5105C16.6805 34.9791 16.7256 35.3631 16.7706 35.715C16.7256 36.7116 16.7233 37.6784 16.8584 38.6772L16.8787 41.7856C16.7661 42.197 16.7188 42.2839 16.6737 43.5729C17.149 43.7192 17.6468 43.7512 18.1896 43.5181C18.2346 42.725 18.077 41.9936 18.0319 41.7856L17.9441 41.4336C17.9193 40.9651 17.7842 39.3537 17.854 38.6795C17.9666 37.3607 17.8788 37.0658 17.7887 35.6853C17.7909 35.4248 17.9261 34.3963 17.9283 34.1037C17.9283 33.6054 17.9508 33.8386 17.9508 33.3723L17.9283 31.8181C18.0882 30.9953 18.3833 29.7336 18.3383 28.504C18.4509 28.9131 18.4959 29.3519 18.4734 29.7931C19.1761 29.7656 21.6875 29.3862 21.6898 27.3063C21.9848 28.3623 21.5299 28.9474 22.2979 30.737L23.111 32.5266C23.7214 33.8454 24.039 34.2294 24.039 35.6922C24.0142 36.8099 24.0142 37.7469 23.9467 38.8623C23.9467 39.3606 23.9219 39.9754 23.6967 40.268C23.3092 40.7982 23.1516 41.1776 23.334 41.941C23.8093 42.1444 24.262 42.2039 24.7373 42.0599L24.7823 40.6222C24.8746 40.1811 24.9197 39.7126 25.012 39.1572C25.0796 38.716 24.9445 38.3641 24.967 37.9549C25.0143 36.7801 25.1269 35.667 25.172 34.5837L25.1967 33.1757L24.9692 32.6181C24.2688 30.6547 24.4309 29.7748 24.7237 27.8092C24.7778 27.336 24.7891 26.4698 24.6539 25.5418C25.0684 25.6721 25.5031 25.7361 25.8747 25.6607Z" fill="#E6E6E6" fill-opacity="0.68"/>
<path fill-rule="evenodd" clip-rule="evenodd" d="M21.7287 29.3227C21.7062 28.9707 21.6837 28.5616 21.6859 28.0039H21.6611C21.4584 28.7376 20.8908 29.2656 20.0755 29.6747C19.9854 29.7341 19.9606 29.7067 20.0079 29.821C20.2804 30.6415 20.8435 31.7271 21.3638 32.726C21.5237 33.0482 21.5237 33.3979 21.5665 33.6631C22.1296 36.5955 21.8796 38.0331 21.5395 38.8834C21.517 38.9405 21.4945 39.0296 21.4494 39.0571C21.044 39.6148 20.9719 39.9645 20.9719 40.5221C21.4922 40.7873 21.9449 40.8467 22.4202 40.7301L22.6702 39.3816C22.8752 38.6205 23.0554 38.3851 23.0779 37.768C23.1004 37.1829 22.9675 34.2207 22.8774 32.2277C22.249 31.142 21.8639 30.5249 21.7287 29.3227Z" fill="#E6E6E6" fill-opacity="0.68"/>
</svg>
